<svg width="102" height="102" viewBox="0 0 102 102" fill="none" xmlns="http://www.w3.org/2000/svg">
<path d="M4.02563 33.401C2.64174 30.0051 2.01447 28.3127 1.34398 24.3807C0.570106 19.8423 1.34384 13.7413 1.34384 13.7413C1.34384 13.7413 2.01433 9.42405 2.6848 7.03388C4.56633 0.326456 8.27157 1.0204 8.27157 1.0204C13.1879 1.71419 11.6876 7.61977 11.8471 12.8162C11.8471 12.8162 11.6221 20.4487 13.8575 26.6936C16.0931 32.9385 18.9982 36.1765 18.9982 36.1765C20.3983 37.6402 21.2013 38.58 23.0206 39.4146C23.0206 39.4146 25.4787 40.4291 27.49 40.1085C28.9963 39.8683 29.8859 39.4883 31.0655 38.4894C35.9818 34.3262 35.9818 24.3807 35.9818 24.3807V14.4094C35.9818 11.3746 39.424 11.8624 41.3453 12.7904C44.6973 14.4094 45.5913 22.9929 43.5801 29.9317C41.5685 36.8705 40.2278 38.7207 38.2166 45.8908C38.2166 45.8908 37.9237 47.398 38.6635 48.6664C39.4033 49.9344 40.6261 51.31 42.2389 52.598C50.0605 58.8428 52.7421 60.2308 52.7421 60.2308C52.7421 60.2308 63.2453 66.938 67.0445 66.4756C70.8433 66.0132 72.7481 63.568 74.8657 60.2308C76.8993 57.0256 77.3241 54.6796 77.3241 50.7476C77.3241 46.8156 75.2125 37.6733 80.6761 36.1765C88.2741 34.0949 86.1857 49.2812 83.8049 57.224C83.4445 58.4256 82.6873 60.2308 82.6873 60.2308C82.6873 60.2308 76.8409 74.9885 82.6873 76.4209C84.0473 76.7545 84.9681 76.9721 86.2629 76.4209C87.1793 76.0309 88.0633 75.0716 88.9453 73.9316C89.6897 72.9692 89.9169 72.2868 90.5089 71.2136C91.8433 68.7936 92.2705 67.2464 93.6757 64.8716C94.5385 63.4144 95.2205 61.3816 97.1161 61.2476C98.2745 61.166 99.0165 61.6364 99.9117 62.3124C101.202 63.2864 100.987 65.5512 100.987 65.5512C100.987 65.5512 100.182 69.5132 98.1913 72.1196C95.3961 75.7792 89.8385 81.2781 89.8385 83.4445C89.8385 85.6105 91.3105 86.6153 91.3105 86.6153C91.3105 86.6153 96.8853 90.6949 97.1161 94.3161C97.3469 97.9377 90.5089 100.475 90.5089 100.475C88.3105 101.278 86.2629 101.4 84.6985 99.0877C83.9073 97.9177 82.6873 95.6181 82.6873 95.6181L81.1229 93.3053C81.1229 93.3053 79.5945 91.3613 78.4413 90.2985C76.7965 88.7821 73.7485 87.0605 73.7485 87.0605L70.3965 84.9789L64.5861 81.2781L50.0605 72.9516L35.3116 64.1624L24.8076 56.7612L18.9982 52.598C18.9982 52.598 15.4187 49.8188 13.4113 47.7412C11.2297 45.4832 10.1906 44.2716 8.27157 41.496C6.24901 38.5709 5.37629 36.7154 4.02563 33.401Z" fill="#ED5665" stroke="#ED5665" stroke-width="2"/>
</svg>
