<svg xmlns="http://www.w3.org/2000/svg" id="Layer_1" version="1.1" viewBox="0 0 238.1 170.1"><defs><style>.st0{fill:#ed601a}</style></defs><path d="m133.1 106.8-9.3-8.5-14.4 10.3 21.4 19.4c4.8 4.4 12.3 4 16.7-.8 2-2.2 3.1-5 3.1-8V79.1l-17.4 12.5v15.2h-.1ZM150.5 31.2l6.3 10.1 14.1-10.1c-6.7-10.8-12.4-19.9-15.9-25.6-3.4-5.6-10.7-7.3-16.3-3.8-3.5 2.2-5.6 6-5.6 10.1v46.4l17.4-12.5V31.2Z" class="st0"/><path d="M231.7 1.4c-3.9-2-8.7-1.7-12.3.9l-15.6 11.2-7 5.1L31.3 137.4l-13.9 10V25L89 90l14.4-10.3L19.8 3.8C15-.6 7.5-.3 3.1 4.6c-2 2.2-3.1 5-3.1 8v145.7c0 6.5 5.3 11.8 11.8 11.8s4.9-.8 6.9-2.2l22.7-16.3L206.8 32.7l13.9-10V112c-10.1-16.5-23.3-38-35.6-57.8L171 64.3c17 27.5 35.8 58 45.1 73.6 3.3 5.6 10.6 7.5 16.2 4.2 3.6-2.1 5.8-6 5.8-10.3V11.9c0-4.4-2.4-8.5-6.4-10.5Z" class="st0"/></svg>