<svg width="32" height="33" viewBox="0 0 32 33" fill="none" xmlns="http://www.w3.org/2000/svg">
<g clip-path="url(#clip0_173_1343)">
<path d="M21.8212 21.2505C20.8052 22.1521 19.5364 23.2741 17.2358 23.2741H15.8601C14.1953 23.2741 12.6811 22.6689 11.5973 21.5721C10.5385 20.5004 9.95572 19.0336 9.95572 17.4413V15.559C9.95572 13.9667 10.5385 12.4999 11.5973 11.4281C12.6811 10.3313 14.1953 9.72714 15.8601 9.72714H17.2358C19.5392 9.72714 20.8052 10.8481 21.8212 11.7498C22.8762 12.6793 23.7862 13.4917 26.2132 13.4917C26.5833 13.4916 26.9529 13.462 27.3184 13.4034L27.31 13.382C27.1647 13.021 26.9942 12.6706 26.7997 12.3335L25.1777 9.52357C23.6908 6.94859 20.9342 5.35732 17.9608 5.35742H14.7158C11.7425 5.35732 8.98585 6.94859 7.49898 9.52357L5.87695 12.3335C4.39063 14.9088 4.39063 18.0915 5.87695 20.6667L7.49898 23.4767C8.98585 26.0517 11.7425 27.643 14.7158 27.6429H17.9608C20.9342 27.643 23.6908 26.0517 25.1777 23.4767L26.7997 20.6714C26.9942 20.3342 27.1647 19.9839 27.31 19.6229L27.3184 19.6024C26.9531 19.5417 26.5835 19.5107 26.2132 19.5095C23.7862 19.5095 22.8762 20.3163 21.8212 21.2505Z" fill="#006BFF"/>
<path d="M17.236 11.4326H15.8603C13.3264 11.4326 11.6616 13.2424 11.6616 15.5588V17.4411C11.6616 19.7575 13.3264 21.5673 15.8603 21.5673H17.236C20.9281 21.5673 20.638 17.8027 26.2134 17.8027C26.7416 17.8021 27.2688 17.8506 27.788 17.9477C27.9572 16.99 27.9572 16.0099 27.788 15.0522C27.2687 15.1488 26.7416 15.1973 26.2134 15.1972C20.6362 15.1972 20.9281 11.4326 17.236 11.4326Z" fill="#006BFF"/>
<path d="M30.9909 19.3234C30.0415 18.6281 28.9465 18.1574 27.7887 17.9468V17.9747C27.689 18.5297 27.5332 19.0731 27.3239 19.5967C28.2803 19.7448 29.1879 20.1187 29.9712 20.6871C29.9712 20.6945 29.9665 20.7038 29.9638 20.7122C28.1213 26.6781 22.5685 30.7748 16.3246 30.7748C8.49366 30.7748 2.04978 24.3309 2.04978 16.5C2.04978 8.66908 8.49366 2.22521 16.3246 2.22521C22.5685 2.22521 28.1213 6.32192 29.9638 12.2878C29.9638 12.2962 29.9684 12.3055 29.9712 12.3129C29.188 12.8814 28.2804 13.2549 27.3239 13.4023C27.533 13.9266 27.6887 14.4707 27.7887 15.0262C27.7881 15.0349 27.7881 15.0436 27.7887 15.0523C28.9464 14.8421 30.0415 14.3717 30.9909 13.6766C31.9037 13.0008 31.7271 12.2376 31.5886 11.7859C29.5258 5.09541 23.3 0.5 16.2988 0.5C7.52146 0.5 0.298828 7.72263 0.298828 16.5C0.298828 25.2774 7.52146 32.5 16.2988 32.5C23.3 32.5 29.5258 27.9046 31.5886 21.2141C31.7271 20.7624 31.9037 19.9992 30.9909 19.3234Z" fill="#006BFF"/>
<path d="M27.3183 13.4021C26.953 13.4628 26.5834 13.4939 26.213 13.4951C23.786 13.4951 22.876 12.6873 21.8219 11.7531C20.805 10.8515 19.539 9.72949 17.2356 9.72949H15.8599C14.1942 9.72949 12.6809 10.3346 11.5971 11.4315C10.5384 12.5033 9.95557 13.9701 9.95557 15.5623V17.4446C9.95557 19.0369 10.5384 20.5037 11.5971 21.5755C12.6809 22.6723 14.1942 23.2765 15.8599 23.2765H17.2356C19.539 23.2765 20.805 22.1555 21.8219 21.2538C22.876 20.3243 23.786 19.5119 26.213 19.5119C26.5832 19.512 26.9528 19.5416 27.3183 19.6002C27.5281 19.0768 27.6837 18.5333 27.783 17.9782C27.7836 17.9689 27.7836 17.9596 27.783 17.9503C27.2637 17.854 26.7366 17.8058 26.2084 17.8062C20.6312 17.8062 20.9231 21.5717 17.231 21.5717H15.8553C13.3214 21.5717 11.6566 19.761 11.6566 17.4446V15.5586C11.6566 13.2422 13.3214 11.4324 15.8553 11.4324H17.231C20.9231 11.4324 20.6331 15.1961 26.2084 15.1961C26.7367 15.197 27.2638 15.1488 27.783 15.052V15.026C27.6831 14.4704 27.5274 13.9264 27.3183 13.4021Z" fill="#0AE8F0"/>
<path d="M27.3183 13.4021C26.953 13.4628 26.5834 13.4939 26.213 13.4951C23.786 13.4951 22.876 12.6873 21.8219 11.7531C20.805 10.8515 19.539 9.72949 17.2356 9.72949H15.8599C14.1942 9.72949 12.6809 10.3346 11.5971 11.4315C10.5384 12.5033 9.95557 13.9701 9.95557 15.5623V17.4446C9.95557 19.0369 10.5384 20.5037 11.5971 21.5755C12.6809 22.6723 14.1942 23.2765 15.8599 23.2765H17.2356C19.539 23.2765 20.805 22.1555 21.8219 21.2538C22.876 20.3243 23.786 19.5119 26.213 19.5119C26.5832 19.512 26.9528 19.5416 27.3183 19.6002C27.5281 19.0768 27.6837 18.5333 27.783 17.9782C27.7836 17.9689 27.7836 17.9596 27.783 17.9503C27.2637 17.854 26.7366 17.8058 26.2084 17.8062C20.6312 17.8062 20.9231 21.5717 17.231 21.5717H15.8553C13.3214 21.5717 11.6566 19.761 11.6566 17.4446V15.5586C11.6566 13.2422 13.3214 11.4324 15.8553 11.4324H17.231C20.9231 11.4324 20.6331 15.1961 26.2084 15.1961C26.7367 15.197 27.2638 15.1488 27.783 15.052V15.026C27.6831 14.4704 27.5274 13.9264 27.3183 13.4021Z" fill="#0AE8F0"/>
</g>
<defs>
<clipPath id="clip0_173_1343">
<rect width="32" height="32" fill="white" transform="translate(0 0.5)"/>
</clipPath>
</defs>
</svg>
