<svg width="800px" height="800px" viewBox="0 0 24 24" fill="none" xmlns="http://www.w3.org/2000/svg">
<path d="M9 22H15C20 22 22 20 22 15V9C22 4 20 2 15 2H9C4 2 2 4 2 9V15C2 20 4 22 9 22Z" stroke="#292D32" stroke-width="1.5" stroke-linecap="round" stroke-linejoin="round"/>
<path d="M15.75 9H8.25C7.84 9 7.5 9.34 7.5 9.75V11.25C7.5 11.66 7.84 12 8.25 12H15.75C16.16 12 16.5 11.66 16.5 11.25V9.75C16.5 9.34 16.16 9 15.75 9Z" stroke="#292D32" stroke-width="1.5" stroke-linejoin="round"/>
<path d="M14.25 15H8.25C7.84 15 7.5 15.34 7.5 15.75V17.25C7.5 17.66 7.84 18 8.25 18H14.25C14.66 18 15 17.66 15 17.25V15.75C15 15.34 14.66 15 14.25 15Z" stroke="#292D32" stroke-width="1.5" stroke-linejoin="round"/>
<path d="M9.75 6.75H7.5V6C7.5 5.59 7.16 5.25 6.75 5.25C6.34 5.25 6 5.59 6 6V7.5C6 7.91 6.34 8.25 6.75 8.25H9C9.41 8.25 9.75 7.91 9.75 7.5C9.75 7.09 9.41 6.75 9.75 6.75Z" stroke="#292D32" stroke-width="1.5" stroke-linecap="round" stroke-linejoin="round"/>
</svg>
