<svg width="100" height="100" viewBox="0 0 100 100" fill="none" xmlns="http://www.w3.org/2000/svg">
<g clip-path="url(#clip0_167_1289)">
<path d="M29.4758 22.2714C32.3698 22.2714 34.7159 19.9253 34.7159 17.0312C34.7159 14.1371 32.3698 11.791 29.4758 11.791C26.5817 11.791 24.2356 14.1371 24.2356 17.0312C24.2356 19.9253 26.5817 22.2714 29.4758 22.2714Z" fill="#EA4335"/>
<path d="M29.4758 44.1053C32.3698 44.1053 34.7159 41.7592 34.7159 38.8652C34.7159 35.9711 32.3698 33.625 29.4758 33.625C26.5817 33.625 24.2356 35.9711 24.2356 38.8652C24.2356 41.7592 26.5817 44.1053 29.4758 44.1053Z" fill="#EA4335"/>
<path d="M29.4758 65.9393C32.3698 65.9393 34.7159 63.5932 34.7159 60.6992C34.7159 57.8051 32.3698 55.459 29.4758 55.459C26.5817 55.459 24.2356 57.8051 24.2356 60.6992C24.2356 63.5932 26.5817 65.9393 29.4758 65.9393Z" fill="#EA4335"/>
<path d="M29.4758 87.7733C32.3698 87.7733 34.7159 85.4272 34.7159 82.5331C34.7159 79.6391 32.3698 77.293 29.4758 77.293C26.5817 77.293 24.2356 79.6391 24.2356 82.5331C24.2356 85.4272 26.5817 87.7733 29.4758 87.7733Z" fill="#EA4335"/>
<path d="M48.2532 12.2271C51.6296 12.2271 54.3667 9.48995 54.3667 6.11354C54.3667 2.73712 51.6296 0 48.2532 0C44.8768 0 42.1396 2.73712 42.1396 6.11354C42.1396 9.48995 44.8768 12.2271 48.2532 12.2271Z" fill="#FBBC04"/>
<path d="M48.2532 34.0611C51.6296 34.0611 54.3667 31.3239 54.3667 27.9475C54.3667 24.5711 51.6296 21.834 48.2532 21.834C44.8768 21.834 42.1396 24.5711 42.1396 27.9475C42.1396 31.3239 44.8768 34.0611 48.2532 34.0611Z" fill="#FBBC04"/>
<path d="M48.2532 55.895C51.6296 55.895 54.3667 53.1579 54.3667 49.7815C54.3667 46.4051 51.6296 43.668 48.2532 43.668C44.8768 43.668 42.1396 46.4051 42.1396 49.7815C42.1396 53.1579 44.8768 55.895 48.2532 55.895Z" fill="#FBBC04"/>
<path d="M48.2532 77.729C51.6296 77.729 54.3667 74.9919 54.3667 71.6155C54.3667 68.2391 51.6296 65.502 48.2532 65.502C44.8768 65.502 42.1396 68.2391 42.1396 71.6155C42.1396 74.9919 44.8768 77.729 48.2532 77.729Z" fill="#FBBC04"/>
<path d="M48.2532 100.001C51.6296 100.001 54.3667 97.2634 54.3667 93.887C54.3667 90.5106 51.6296 87.7734 48.2532 87.7734C44.8768 87.7734 42.1396 90.5106 42.1396 93.887C42.1396 97.2634 44.8768 100.001 48.2532 100.001Z" fill="#FBBC04"/>
<path d="M66.8122 24.4534C70.7915 24.4534 74.0174 21.2276 74.0174 17.2482C74.0174 13.2689 70.7915 10.043 66.8122 10.043C62.8328 10.043 59.6069 13.2689 59.6069 17.2482C59.6069 21.2276 62.8328 24.4534 66.8122 24.4534Z" fill="#34A853"/>
<path d="M66.8122 46.2874C70.7915 46.2874 74.0174 43.0615 74.0174 39.0822C74.0174 35.1028 70.7915 31.877 66.8122 31.877C62.8328 31.877 59.6069 35.1028 59.6069 39.0822C59.6069 43.0615 62.8328 46.2874 66.8122 46.2874Z" fill="#34A853"/>
<path d="M66.8122 68.1214C70.7915 68.1214 74.0174 64.8955 74.0174 60.9162C74.0174 56.9368 70.7915 53.7109 66.8122 53.7109C62.8328 53.7109 59.6069 56.9368 59.6069 60.9162C59.6069 64.8955 62.8328 68.1214 66.8122 68.1214Z" fill="#34A853"/>
<path d="M66.8122 89.9554C70.7915 89.9554 74.0174 86.7295 74.0174 82.7502C74.0174 78.7708 70.7915 75.5449 66.8122 75.5449C62.8328 75.5449 59.6069 78.7708 59.6069 82.7502C59.6069 86.7295 62.8328 89.9554 66.8122 89.9554Z" fill="#34A853"/>
<path d="M85.3712 36.2443C89.9534 36.2443 93.6681 32.5296 93.6681 27.9473C93.6681 23.3651 89.9534 19.6504 85.3712 19.6504C80.7889 19.6504 77.0742 23.3651 77.0742 27.9473C77.0742 32.5296 80.7889 36.2443 85.3712 36.2443Z" fill="#4285F4"/>
<path d="M10.6986 32.3137C13.1103 32.3137 15.0654 30.3586 15.0654 27.9469C15.0654 25.5352 13.1103 23.5801 10.6986 23.5801C8.28688 23.5801 6.33179 25.5352 6.33179 27.9469C6.33179 30.3586 8.28688 32.3137 10.6986 32.3137Z" fill="#4285F4"/>
<path d="M10.6986 54.1477C13.1103 54.1477 15.0654 52.1926 15.0654 49.7809C15.0654 47.3692 13.1103 45.4141 10.6986 45.4141C8.28688 45.4141 6.33179 47.3692 6.33179 49.7809C6.33179 52.1926 8.28688 54.1477 10.6986 54.1477Z" fill="#4285F4"/>
<path d="M10.6986 75.9817C13.1103 75.9817 15.0654 74.0266 15.0654 71.6149C15.0654 69.2031 13.1103 67.248 10.6986 67.248C8.28688 67.248 6.33179 69.2031 6.33179 71.6149C6.33179 74.0266 8.28688 75.9817 10.6986 75.9817Z" fill="#4285F4"/>
<path d="M85.3712 58.0783C89.9534 58.0783 93.6681 54.3636 93.6681 49.7813C93.6681 45.199 89.9534 41.4844 85.3712 41.4844C80.7889 41.4844 77.0742 45.199 77.0742 49.7813C77.0742 54.3636 80.7889 58.0783 85.3712 58.0783Z" fill="#4285F4"/>
<path d="M85.3712 79.9122C89.9534 79.9122 93.6681 76.1976 93.6681 71.6153C93.6681 67.033 89.9534 63.3184 85.3712 63.3184C80.7889 63.3184 77.0742 67.033 77.0742 71.6153C77.0742 76.1976 80.7889 79.9122 85.3712 79.9122Z" fill="#4285F4"/>
</g>
<defs>
<clipPath id="clip0_167_1289">
<rect width="100" height="100" fill="white"/>
</clipPath>
</defs>
</svg>
