<svg width="256" height="256" viewBox="0 0 256 256" fill="none" xmlns="http://www.w3.org/2000/svg">
<g clip-path="url(#clip0_2_15087)">
<path d="M195.368 60.6318H60.6313V195.369H195.368V60.6318Z" fill="white"/>
<path d="M195.368 256L256 195.369L225.684 190.196L195.368 195.369L189.835 223.098L195.368 256Z" fill="#EA4335"/>
<path d="M0 195.369V235.79C0 246.956 9.04421 256 20.2105 256H60.6316L66.8569 225.684L60.6316 195.369L27.5992 190.196L0 195.369Z" fill="#188038"/>
<path d="M256 60.6316V20.2105C256 9.04421 246.956 0 235.789 0H195.368C191.679 15.0359 189.835 26.1011 189.835 33.1957C189.835 40.2903 191.679 49.4356 195.368 60.6316C208.778 64.4715 218.883 66.3914 225.684 66.3914C232.485 66.3914 242.59 64.4715 256 60.6316Z" fill="#1967D2"/>
<path d="M256 60.6318H195.369V195.369H256V60.6318Z" fill="#FBBC04"/>
<path d="M195.368 195.368H60.6313V256H195.368V195.368Z" fill="#34A853"/>
<path d="M195.368 0H20.2105C9.04421 0 0 9.04421 0 20.2105V195.368H60.6316V60.6316H195.368V0Z" fill="#4285F4"/>
<path d="M88.2695 165.154C83.2337 161.752 79.7474 156.783 77.8442 150.215L89.5327 145.398C90.5937 149.44 92.4463 152.573 95.0906 154.796C97.7179 157.019 100.918 158.114 104.657 158.114C108.48 158.114 111.764 156.952 114.51 154.628C117.255 152.303 118.636 149.339 118.636 145.752C118.636 142.08 117.187 139.082 114.291 136.758C111.394 134.434 107.756 133.272 103.411 133.272H96.6569V121.701H102.72C106.459 121.701 109.608 120.691 112.168 118.67C114.728 116.649 116.008 113.887 116.008 110.367C116.008 107.234 114.863 104.741 112.573 102.872C110.282 101.002 107.385 100.059 103.865 100.059C100.43 100.059 97.7011 100.969 95.68 102.805C93.6603 104.645 92.1419 106.969 91.2674 109.558L79.6969 104.741C81.2295 100.396 84.0421 96.5561 88.1684 93.2382C92.2948 89.9203 97.5663 88.2529 103.966 88.2529C108.699 88.2529 112.96 89.1624 116.733 90.9982C120.505 92.834 123.47 95.3771 125.608 98.6108C127.747 101.861 128.808 105.499 128.808 109.541C128.808 113.668 127.815 117.154 125.827 120.017C123.84 122.88 121.398 125.07 118.501 126.602V127.293C122.242 128.835 125.491 131.368 127.899 134.619C130.341 137.903 131.571 141.828 131.571 146.409C131.571 150.99 130.408 155.082 128.084 158.67C125.76 162.257 122.543 165.087 118.467 167.141C114.375 169.196 109.777 170.24 104.674 170.24C98.7621 170.257 93.3053 168.556 88.2695 165.154ZM160.067 107.15L147.234 116.43L140.817 106.695L163.84 90.0887H172.665V168.421H160.067V107.15Z" fill="#4285F4"/>
</g>
<defs>
<clipPath id="clip0_2_15087">
<rect width="256" height="256" fill="white"/>
</clipPath>
</defs>
</svg>
