<svg width="32" height="32" viewBox="0 0 32 32" fill="none" xmlns="http://www.w3.org/2000/svg">
<g clip-path="url(#clip0_1791_7600)">
<path d="M12.3589 19.8071L22.9974 11.9095C23.5189 11.5223 24.2644 11.6734 24.5129 12.2747C25.8208 15.4464 25.2365 19.2579 22.6342 21.8749C20.032 24.4918 16.4112 25.0657 13.1017 23.7587L9.48633 25.442C14.6718 29.0063 20.9685 28.1248 24.9034 24.1651C28.0245 21.0263 28.9911 16.748 28.0872 12.8899L28.0954 12.8981C26.7847 7.23031 28.4176 4.96481 31.7627 0.332269C31.8418 0.222428 31.9211 0.112587 32.0002 0L27.5985 4.42659V4.41288L12.3562 19.8099" fill="#0A0A0A"/>
<path d="M10.1633 21.7264C6.4415 18.151 7.08319 12.6178 10.2589 9.4269C12.6072 7.06531 16.4547 6.10147 19.8133 7.5184L23.4204 5.84334C22.7705 5.37103 21.9377 4.863 20.982 4.50603C16.6622 2.71835 11.4904 3.60806 7.97884 7.13672C4.60106 10.5336 3.53888 15.7565 5.36291 20.2133C6.7255 23.5442 4.49184 25.9003 2.24183 28.2784C1.44449 29.1214 0.644425 29.9645 0 30.8569L10.1606 21.7291" fill="#0A0A0A"/>
</g>
<defs>
<clipPath id="clip0_1791_7600">
<rect width="32" height="32" fill="white"/>
</clipPath>
</defs>
</svg>
