<svg width="48" height="48" viewBox="0 0 48 48" fill="none" xmlns="http://www.w3.org/2000/svg">
<g clip-path="url(#clip0_1684_7549)">
<path d="M22.534 3.28574e-05C13.582 -0.0299671 -3.64003 20.492 2.79397 25.928L4.37397 27.266C3.94752 28.4095 3.79677 29.6374 3.93397 30.85C4.10197 32.53 4.96997 34.138 6.37397 35.382C7.70597 36.562 9.45797 37.31 11.158 37.31C13.97 43.79 20.398 47.766 27.93 47.99C36.01 48.23 42.796 44.438 45.638 37.626C45.824 37.146 46.614 34.994 46.614 33.092C46.614 31.18 45.534 30.388 44.844 30.388C44.824 30.314 44.688 29.816 44.5 29.216C44.314 28.616 44.12 28.196 44.12 28.196C44.87 27.07 44.884 26.066 44.784 25.496C44.678 24.79 44.384 24.19 43.792 23.568C43.2 22.946 41.988 22.308 40.286 21.832L39.394 21.584C39.39 21.546 39.346 19.478 39.308 18.59C39.28 17.95 39.224 16.946 38.914 15.96C38.542 14.624 37.898 13.454 37.092 12.706C39.316 10.402 40.704 7.86203 40.7 5.68403C40.694 1.49403 35.548 0.226033 29.208 2.85203L27.864 3.42203C27.0437 2.61632 26.2223 1.81165 25.4 1.00803C24.608 0.318033 23.634 0.00403286 22.534 3.28574e-05ZM22.68 1.74603C23.012 1.74603 23.324 1.78403 23.61 1.86203C24.204 2.03003 26.17 4.31003 26.17 4.31003C26.17 4.31003 22.518 6.33603 19.13 9.16203C14.57 12.676 11.12 17.784 9.05597 23.326C7.43397 23.642 6.00397 24.562 5.12997 25.832C4.60797 25.396 3.63397 24.552 3.46197 24.224C2.06597 21.572 4.98397 16.42 7.02397 13.51C11.668 6.88003 18.74 1.73403 22.68 1.74603ZM29.252 8.29203C29.332 8.28803 29.372 8.39203 29.308 8.44003C29.022 8.66003 28.71 8.96003 28.482 9.26803C28.4731 9.27978 28.4677 9.29373 28.4663 9.30836C28.4649 9.32298 28.4675 9.33771 28.4739 9.35093C28.4804 9.36415 28.4903 9.37536 28.5026 9.38331C28.515 9.39127 28.5293 9.39567 28.544 9.39603C29.862 9.40403 31.718 9.86603 32.928 10.544C33.01 10.59 32.952 10.75 32.86 10.728C31.03 10.308 28.032 9.99003 24.92 10.748C22.14 11.428 20.02 12.474 18.472 13.6C18.392 13.656 18.3 13.554 18.362 13.48C20.154 11.41 22.36 9.61003 24.336 8.60003C24.404 8.56403 24.476 8.63803 24.44 8.70403C24.282 8.99003 23.98 9.59803 23.884 10.06C23.87 10.13 23.948 10.186 24.008 10.144C25.238 9.30403 27.376 8.40803 29.252 8.29203ZM35.298 14.702L35.41 14.704C35.7348 14.7168 36.0501 14.8178 36.322 14.996C37.39 15.706 37.542 17.428 37.598 18.686C37.628 19.406 37.716 21.144 37.746 21.642C37.814 22.784 38.114 22.944 38.72 23.144C39.06 23.258 39.38 23.34 39.846 23.472C41.258 23.868 42.096 24.272 42.626 24.788C42.94 25.112 43.086 25.454 43.132 25.782C43.298 26.998 42.188 28.502 39.248 29.864C36.034 31.356 32.134 31.734 29.44 31.434L28.498 31.328C26.342 31.038 25.112 33.822 26.406 35.73C27.24 36.96 29.51 37.76 31.782 37.76C36.99 37.76 40.992 35.538 42.482 33.616C42.5249 33.5615 42.565 33.5048 42.602 33.446C42.674 33.336 42.614 33.276 42.522 33.338C41.306 34.17 35.902 37.476 30.122 36.48C30.122 36.48 29.42 36.366 28.778 36.116C28.268 35.916 27.202 35.428 27.072 34.334C31.738 35.774 34.674 34.412 34.674 34.412C34.7012 34.3997 34.7239 34.3792 34.7389 34.3534C34.754 34.3276 34.7606 34.2978 34.758 34.268C34.7562 34.2504 34.751 34.2333 34.7426 34.2177C34.7342 34.2021 34.7228 34.1883 34.709 34.1771C34.6952 34.166 34.6794 34.1577 34.6624 34.1527C34.6454 34.1477 34.6276 34.1461 34.61 34.148C34.61 34.148 30.788 34.714 27.174 33.392C27.568 32.112 28.614 32.576 30.194 32.702C32.6522 32.8478 35.1176 32.5814 37.488 31.914C39.124 31.446 41.272 30.52 42.942 29.202C43.504 30.438 43.702 31.8 43.702 31.8C43.702 31.8 44.14 31.72 44.502 31.946C44.848 32.158 45.1 32.598 44.928 33.736C44.576 35.862 43.672 37.588 42.154 39.176C41.2048 40.2022 40.0754 41.0455 38.822 41.664C38.142 42.024 37.414 42.332 36.648 42.584C30.922 44.454 25.06 42.398 23.17 37.984C23.0169 37.6465 22.8905 37.2974 22.792 36.94C21.986 34.03 22.672 30.54 24.808 28.342C24.938 28.202 25.072 28.036 25.072 27.83C25.072 27.656 24.962 27.472 24.868 27.344C24.12 26.258 21.53 24.412 22.05 20.836C22.424 18.268 24.67 16.458 26.764 16.566C26.942 16.574 27.118 16.586 27.296 16.596C28.202 16.65 28.996 16.766 29.742 16.796C30.992 16.852 32.116 16.67 33.448 15.56C33.898 15.186 34.258 14.86 34.868 14.758C34.924 14.748 35.052 14.702 35.298 14.702ZM35.342 19.062C35.3018 19.0625 35.2617 19.0658 35.222 19.072C34.552 19.18 34.528 20.008 34.766 21.152C34.902 21.792 35.14 22.342 35.406 22.682C35.756 22.642 36.092 22.638 36.402 22.682C36.58 22.272 36.61 21.568 36.45 20.798C36.226 19.728 35.928 19.054 35.342 19.062ZM28.022 22.154C27.2927 22.151 26.5813 22.3793 25.99 22.806C25.67 23.04 25.368 23.366 25.41 23.562C25.426 23.626 25.472 23.674 25.586 23.688C25.848 23.718 26.77 23.254 27.83 23.188C28.578 23.142 29.198 23.376 29.676 23.588C30.154 23.796 30.448 23.934 30.562 23.814C30.636 23.738 30.614 23.594 30.5 23.406C30.264 23.022 29.78 22.632 29.264 22.412C28.8713 22.2441 28.449 22.1563 28.022 22.154ZM36.186 23.774C35.844 23.768 35.56 24.146 35.552 24.614C35.544 25.086 35.814 25.474 36.158 25.478C36.502 25.484 36.786 25.108 36.794 24.638C36.802 24.166 36.53 23.78 36.186 23.774ZM29.026 24.118C28.926 24.118 28.822 24.122 28.716 24.134C28.094 24.234 27.75 24.438 27.53 24.628C27.342 24.792 27.226 24.974 27.226 25.102C27.2257 25.1219 27.2294 25.1416 27.2368 25.16C27.2442 25.1785 27.2552 25.1953 27.2692 25.2094C27.2831 25.2235 27.2998 25.2348 27.3181 25.2424C27.3364 25.2501 27.3561 25.254 27.376 25.254C27.516 25.254 27.832 25.128 27.832 25.128C28.4702 24.8874 29.1599 24.8158 29.834 24.92C30.148 24.956 30.294 24.974 30.364 24.868C30.384 24.836 30.408 24.77 30.344 24.668C30.218 24.462 29.724 24.13 29.026 24.118ZM33.546 24.918C33.292 24.918 33.076 25.02 32.98 25.214C32.83 25.522 33.05 25.94 33.472 26.146C33.892 26.354 34.358 26.272 34.512 25.966C34.662 25.656 34.442 25.238 34.02 25.032C33.8728 24.9578 33.7107 24.9202 33.546 24.918ZM10.276 24.966C10.372 24.966 10.472 24.966 10.574 24.972C12.034 25.052 14.186 26.172 14.678 29.352C15.112 32.172 14.422 35.038 11.78 35.49C11.534 35.53 11.284 35.548 11.032 35.542C8.59197 35.476 5.95397 33.278 5.69197 30.672C5.40197 27.792 6.87397 25.576 9.47997 25.05C9.71397 25.002 9.98397 24.97 10.276 24.966ZM10.136 26.82C9.81855 26.8172 9.50403 26.8805 9.21239 27.0058C8.92075 27.1312 8.65838 27.3158 8.44197 27.548C7.68197 28.384 7.56397 29.524 7.70997 29.928C7.76397 30.074 7.84997 30.116 7.90997 30.124C8.03797 30.14 8.22997 30.046 8.34997 29.724C8.36209 29.6896 8.37342 29.655 8.38397 29.62C8.4567 29.361 8.56222 29.1123 8.69797 28.88C8.7971 28.7283 8.92519 28.5977 9.0749 28.4955C9.2246 28.3934 9.39299 28.3218 9.5704 28.2848C9.74782 28.2478 9.93079 28.2462 10.1088 28.2801C10.2869 28.3139 10.4565 28.3825 10.608 28.482C11.14 28.83 11.346 29.482 11.118 30.102C11.002 30.424 10.81 31.04 10.852 31.544C10.938 32.566 11.566 32.978 12.132 33.02C12.68 33.04 13.064 32.734 13.162 32.508C13.22 32.374 13.172 32.294 13.14 32.258C13.054 32.152 12.914 32.184 12.78 32.216C12.6756 32.2442 12.5681 32.259 12.46 32.26C12.3451 32.2632 12.2313 32.2379 12.1286 32.1862C12.026 32.1345 11.9378 32.0582 11.872 31.964C11.716 31.724 11.726 31.364 11.898 30.956C11.92 30.9 11.948 30.84 11.978 30.772C12.254 30.156 12.714 29.122 12.198 28.138C11.808 27.398 11.172 26.934 10.41 26.838C10.3185 26.8258 10.2263 26.8191 10.134 26.818L10.136 26.82Z" fill="black"/>
</g>
<defs>
<clipPath id="clip0_1684_7549">
<rect width="48" height="48" fill="white"/>
</clipPath>
</defs>
</svg>
