<svg width="359" height="298" viewBox="0 0 359 298" fill="none" xmlns="http://www.w3.org/2000/svg">
<path d="M8.54492 254V125.826H55.2856C66.2801 125.826 75.7935 127.678 83.8257 131.38C91.9149 135.026 98.1242 140.239 102.454 147.018C106.84 153.74 109.033 161.743 109.033 171.029C109.033 180.314 106.84 188.375 102.454 195.211C98.1242 201.99 91.9718 207.231 83.9966 210.934C76.0213 214.636 66.5934 216.488 55.7129 216.488H42.3828V254H8.54492ZM42.3828 187.008H51.9531C59.2448 187.008 64.799 185.641 68.6157 182.906C72.4894 180.172 74.4263 176.213 74.4263 171.029C74.4263 165.959 72.4894 162.085 68.6157 159.408C64.742 156.673 59.1878 155.306 51.9531 155.306H42.3828V187.008ZM186.368 256.563C176.57 256.563 167.512 254.911 159.195 251.607C150.935 248.246 143.729 243.575 137.577 237.594C131.481 231.555 126.753 224.492 123.392 216.402C120.031 208.313 118.351 199.483 118.351 189.913C118.351 180.343 120.031 171.513 123.392 163.424C126.753 155.335 131.481 148.299 137.577 142.318C143.729 136.279 150.935 131.608 159.195 128.304C167.512 124.943 176.57 123.263 186.368 123.263C196.223 123.263 205.281 124.943 213.541 128.304C221.801 131.608 228.95 136.279 234.989 142.318C241.084 148.299 245.812 155.335 249.173 163.424C252.534 171.513 254.215 180.343 254.215 189.913C254.215 199.483 252.534 208.313 249.173 216.402C245.812 224.492 241.084 231.555 234.989 237.594C228.95 243.575 221.801 248.246 213.541 251.607C205.281 254.911 196.223 256.563 186.368 256.563ZM186.368 227.083C191.096 227.083 195.483 226.144 199.527 224.264C203.572 222.384 207.075 219.763 210.038 216.402C213.057 212.984 215.392 209.025 217.044 204.525C218.753 200.025 219.608 195.154 219.608 189.913C219.608 184.672 218.753 179.802 217.044 175.301C215.392 170.801 213.057 166.87 210.038 163.509C207.075 160.091 203.572 157.442 199.527 155.562C195.483 153.683 191.096 152.743 186.368 152.743C181.64 152.743 177.225 153.683 173.124 155.562C169.079 157.442 165.547 160.091 162.528 163.509C159.509 166.87 157.145 170.801 155.436 175.301C153.784 179.802 152.958 184.672 152.958 189.913C152.958 195.154 153.784 200.025 155.436 204.525C157.145 209.025 159.509 212.984 162.528 216.402C165.547 219.763 169.079 222.384 173.124 224.264C177.225 226.144 181.64 227.083 186.368 227.083ZM264.387 254V125.826H349.836V155.306H298.225V175.13H346.418V204.61H298.225V224.52H350.69V254H264.387Z" fill="#E41F24"/>
<path d="M240.823 0.37839C240.745 0.572101 240.224 0.814239 239.676 0.886881C238.608 1.08059 236.548 1.87965 236.314 2.24285C236.236 2.36392 235.897 2.46078 235.584 2.46078C235.245 2.46078 234.828 2.63028 234.646 2.82399C234.463 3.0177 234.229 3.18719 234.098 3.18719C233.994 3.18719 233.212 3.59883 232.378 4.13153C230.892 5.05166 230.032 5.85071 228.129 8.12681C227.634 8.73216 226.174 10.0155 224.871 10.984C223.594 11.9526 220.831 14.2771 218.745 16.1416C213.871 20.5485 213.22 20.9844 210.326 21.9529C209.023 22.3888 206.912 23.1394 205.66 23.6237C203.393 24.4711 202.324 24.9312 197.137 27.2073C195.625 27.8611 193.41 28.7812 192.184 29.2413C188.978 30.4762 188.483 30.6699 187.467 31.1057C185.642 31.8806 181.315 33.8903 180.298 34.423C178.083 35.5853 171.514 40.0891 169.612 41.7598C168.673 42.5831 165.728 44.5928 165.441 44.5928C165.337 44.5928 164.815 44.8834 164.294 45.2708C163.304 45.973 161.583 46.7721 161.062 46.7721C160.879 46.7721 159.628 47.2563 158.273 47.8617C156.917 48.467 155.562 48.9513 155.301 48.9513C153.529 48.9513 141.799 53.9394 137.759 56.4092C134.918 58.1526 131.425 60.6708 131.529 60.9372C131.556 61.0582 131.868 61.2277 132.207 61.3004C132.546 61.373 132.859 61.5667 132.911 61.712C132.989 61.8815 131.686 62.8258 130.044 63.8186C128.402 64.8114 125.847 66.4821 124.387 67.4991L121.703 69.3394L120.373 69.1699C118.731 68.9761 118.21 68.9761 117.141 69.1941C116.437 69.3151 116.307 69.4604 116.307 70.0416C116.307 70.8406 115.29 71.4702 113.987 71.4702C113.414 71.4702 112.971 71.6881 112.475 72.245C110.937 73.8915 109.921 74.6422 108.748 74.957C108.07 75.1507 107.288 75.417 107.028 75.5623C106.011 76.095 102.57 77.4994 101.814 77.6689C100.537 77.9595 93.291 81.2768 91.3882 82.439C89.3029 83.6981 88.2864 84.6425 88.0518 85.5384C87.9475 85.95 87.4523 86.4585 86.6442 86.9428C85.9404 87.3544 85.3149 87.6934 85.2106 87.6934C84.5329 87.6934 79.3979 90.9865 78.9548 91.7129C78.616 92.2698 79.0069 92.5604 79.6325 92.1972C80.4145 91.7371 82.1609 91.4708 82.1609 91.8098C82.1609 91.9551 81.9002 92.3909 81.6135 92.7783C81.1965 93.2868 81.0922 93.6742 81.1965 94.328C81.3789 95.4419 81.1704 95.6356 76.6871 97.9843C75.045 98.8318 74.6018 99.0981 73.5331 99.8488C73.0118 100.236 72.4384 100.527 72.282 100.527C71.8128 100.527 71.9431 101.035 72.5687 101.544C72.9076 101.81 73.2985 101.931 73.5331 101.834C73.7677 101.737 74.289 101.616 74.7061 101.544L75.4359 101.423L74.9928 102.076C74.7322 102.415 74.4454 102.706 74.3151 102.706C74.1848 102.706 74.0805 102.851 74.0805 103.045C74.0805 103.214 73.8981 103.505 73.6895 103.675C73.481 103.844 73.2985 104.135 73.2985 104.328C73.2985 104.837 74.3672 105.587 75.071 105.612C75.4099 105.612 75.9051 105.733 76.1658 105.854C76.5046 106.023 77.2084 106.023 78.251 105.878C79.3719 105.709 80.0235 105.709 80.4927 105.902C80.9619 106.12 81.2747 106.096 81.7438 105.878C82.2391 105.612 82.4998 105.636 83.1514 105.951C83.5945 106.169 84.194 106.338 84.4547 106.338C85.6016 106.338 88.4427 105.297 90.528 104.159C91.727 103.481 93.317 102.682 94.0208 102.415C94.7507 102.149 96.0279 101.616 96.8881 101.229C97.7482 100.842 98.5302 100.527 98.6084 100.527C98.6866 100.527 100.016 99.8488 101.606 99.0013C103.17 98.178 106.298 96.6283 108.566 95.5629C110.807 94.4975 112.866 93.5047 113.101 93.3837C116.62 91.5192 119.487 90.139 120.217 89.9211C123.762 88.9283 128.584 88.2746 136.638 87.6934C138.28 87.5966 140.47 87.3302 141.461 87.1123C143.363 86.7249 146.934 86.507 147.221 86.7733C147.299 86.8702 147.951 86.7733 148.681 86.5796C149.671 86.289 150.271 86.2648 151.183 86.4585C153.79 86.967 155.849 87.2576 158.664 87.4513C160.28 87.5724 161.74 87.7419 161.948 87.8145C162.157 87.8629 163.955 88.0324 165.962 88.1535C169.95 88.4198 172.922 89.1463 174.121 90.1875C174.903 90.8654 174.825 91.5434 173.547 95.4419C173.026 96.9673 172.505 99.0739 172.348 100.115C172.01 102.319 172.244 103.263 173.391 104.474C173.782 104.909 174.277 105.709 174.46 106.29C174.825 107.428 175.972 108.517 176.832 108.517C177.405 108.517 180.351 110.406 182.279 112.004C190.647 118.978 190.985 119.365 189.239 120.406C188.483 120.842 188.092 120.891 185.955 120.77C182.905 120.6 181.81 120.963 180.533 122.513C179.725 123.506 179.334 124.741 179.855 124.741C179.986 124.741 180.403 124.402 180.846 123.99C181.732 123.118 182.775 122.561 183.557 122.561C183.948 122.561 184.078 122.707 184.078 123.264C184.078 123.651 184.234 124.087 184.443 124.232C184.678 124.426 186.554 124.523 190.334 124.547H195.86L197.189 125.806C198.518 127.041 199.353 127.549 201.829 128.591C202.48 128.881 203.288 129.365 203.627 129.704C203.966 130.043 204.54 130.31 204.878 130.31C205.243 130.31 205.739 130.455 205.947 130.625C206.182 130.818 206.938 131.157 207.641 131.399C208.319 131.617 209.258 132.126 209.727 132.489C210.17 132.852 211.291 133.53 212.203 133.966L213.845 134.765L214.549 133.99C215.201 133.24 215.253 133.215 216.009 133.579C216.452 133.772 217.286 134.45 217.885 135.056C218.928 136.145 219.527 136.291 219.527 135.443C219.527 135.225 219.944 134.644 220.466 134.184C221.561 133.167 221.952 133.312 222.864 134.935C223.203 135.564 223.62 136 223.906 136C224.271 136 224.35 135.758 224.35 134.426C224.35 133.554 224.271 132.683 224.167 132.441C223.802 131.69 222.16 131.012 219.527 130.528C216.321 129.971 216.009 129.825 215.409 128.663C215.148 128.131 214.575 127.574 213.949 127.259C211.838 126.145 210.769 125.08 210.04 123.385C209.049 120.987 208.449 120.309 205.608 118.372C203.106 116.677 197.971 112.537 193.905 108.929C192.002 107.258 191.872 107.089 192.002 106.314C192.08 105.854 192.211 104.57 192.289 103.457C192.471 101.253 192.992 98.7107 193.383 97.9601C195.495 94.1343 195.834 93.7469 199.952 90.9139C202.037 89.4853 205.217 86.9912 207.016 85.3931C212.281 80.6714 213.324 79.8481 215.148 79.0249C219.501 77.0393 225.079 72.8504 229.094 68.5645C230.032 67.5717 231.883 65.6589 233.238 64.3271C234.567 62.9953 236.027 61.4456 236.522 60.8887C242.439 53.9636 244.368 51.3727 245.385 49.0724C245.619 48.5397 246.219 47.2321 246.74 46.1667C247.261 45.1013 247.678 43.8664 247.678 43.4063C247.678 42.6315 248.122 40.9365 248.773 39.1447C249.607 36.796 250.077 34.7136 250.572 31.0331C251.015 27.6674 251.562 26.723 254.612 24.0353C258.626 20.5001 262.041 18.1998 263.24 18.1998C263.553 18.1998 264.439 17.9818 265.195 17.7397C265.951 17.4733 267.801 17.1344 269.313 17.0133C273.51 16.6259 277.889 16.0447 278.436 15.7784C278.697 15.6331 279.166 15.5362 279.453 15.5362C279.87 15.5362 280 15.391 280 14.9309C280 14.5919 279.896 14.3256 279.739 14.3256C279.609 14.3256 279.088 13.7202 278.566 12.9938C278.071 12.2674 277.55 11.662 277.419 11.662C277.315 11.662 276.742 11.323 276.194 10.9114C275.126 10.1123 271.294 8.2721 270.668 8.2721C270.277 8.2721 267.932 7.64254 266.967 7.25512C266.602 7.10983 265.169 6.74663 263.787 6.45606C261.363 5.92336 260.06 5.36644 256.932 3.5504C255.029 2.43657 251.875 1.08059 250.754 0.911094C250.129 0.814239 249.764 0.620528 249.764 0.402604C249.764 -0.1301 241.032 -0.1301 240.823 0.37839ZM185.251 93.2384C185.381 93.7711 185.173 94.4249 184.469 95.8535C183.244 98.3717 183.192 98.4444 182.644 98.5412C182.227 98.6381 182.201 98.4686 182.384 96.7736C182.697 93.6985 183.27 92.5362 184.495 92.5362C184.938 92.5362 185.121 92.7057 185.251 93.2384ZM184.339 107.113C184.339 107.452 184.495 107.791 184.678 107.864C184.834 107.912 184.912 108.033 184.834 108.106C184.756 108.203 184.26 107.936 183.739 107.525C182.801 106.822 182.436 105.757 182.957 105.273C183.27 104.982 184.339 106.411 184.339 107.113ZM190.203 111.326C193.41 113.602 201.542 120.77 201.542 121.278C201.542 121.447 201.281 121.593 200.943 121.593C200.499 121.593 200.082 121.23 199.326 120.164C198.753 119.365 197.945 118.542 197.502 118.324C194.218 116.677 192.575 115.539 189.109 112.367C187.336 110.769 185.903 109.389 185.903 109.341C185.903 109.292 186.215 109.244 186.632 109.244C187.128 109.244 188.222 109.898 190.203 111.326Z" fill="#E41F24"/>
</svg>
