<svg width="262" height="210" viewBox="0 0 262 210" fill="none" xmlns="http://www.w3.org/2000/svg">
<path d="M212.652 0.584641C212.554 0.883743 211.897 1.25763 211.208 1.3698C209.861 1.66891 207.268 2.90274 206.972 3.46358C206.874 3.65053 206.447 3.80008 206.053 3.80008C205.626 3.80008 205.101 4.0618 204.871 4.36092C204.641 4.66003 204.346 4.92175 204.181 4.92175C204.05 4.92175 203.065 5.55736 202.014 6.37991C200.143 7.80069 199.059 9.03453 196.663 12.5491C196.039 13.4838 194.2 15.4654 192.559 16.961C190.95 18.4565 187.469 22.0459 184.843 24.9248C178.703 31.7296 177.882 32.4026 174.238 33.8982C172.596 34.5712 169.937 35.7302 168.361 36.478C165.504 37.7866 164.158 38.497 157.624 42.0116C155.72 43.0211 152.929 44.4418 151.386 45.1522C147.348 47.0591 146.724 47.3582 145.443 48.0312C143.145 49.2276 137.695 52.3309 136.414 53.1535C133.624 54.9481 125.35 61.9025 122.953 64.4823C121.771 65.7535 118.061 68.8568 117.7 68.8568C117.568 68.8568 116.912 69.3055 116.255 69.9037C115.007 70.988 112.84 72.2218 112.184 72.2218C111.954 72.2218 110.378 72.9696 108.671 73.9043C106.963 74.839 105.256 75.5868 104.928 75.5868C102.695 75.5868 87.9203 83.2889 82.8313 87.1026C79.2525 89.7946 74.8529 93.6831 74.9842 94.0943C75.017 94.2813 75.411 94.543 75.8379 94.6552C76.2647 94.7673 76.6587 95.0664 76.7244 95.2908C76.8229 95.5525 75.1812 97.0107 73.1127 98.5436C71.0443 100.077 67.8267 102.656 65.988 104.227L62.6062 107.068L60.9318 106.807C58.8633 106.507 58.2066 106.507 56.8605 106.844C55.974 107.031 55.8098 107.255 55.8098 108.153C55.8098 109.386 54.5294 110.359 52.8877 110.359C52.1654 110.359 51.6072 110.695 50.9834 111.555C49.0463 114.097 47.7658 115.256 46.2883 115.743C45.4347 116.042 44.4497 116.453 44.1213 116.677C42.8409 117.5 38.5069 119.668 37.5548 119.93C35.946 120.379 26.8184 125.501 24.4216 127.296C21.795 129.24 20.5145 130.698 20.219 132.081C20.0877 132.717 19.4639 133.502 18.4461 134.25C17.5596 134.886 16.7716 135.409 16.6403 135.409C15.7866 135.409 9.31855 140.494 8.76039 141.616C8.33356 142.476 8.82606 142.924 9.61405 142.363C10.599 141.653 12.7988 141.242 12.7988 141.765C12.7988 141.99 12.4705 142.663 12.1093 143.261C11.584 144.046 11.4527 144.644 11.584 145.654C11.8138 147.374 11.5512 147.673 5.90393 151.299C3.83547 152.608 3.27731 153.019 1.93116 154.178C1.27451 154.777 0.552183 155.225 0.355186 155.225C-0.235805 155.225 -0.0716406 156.01 0.716347 156.796C1.14317 157.207 1.63567 157.394 1.93116 157.244C2.22666 157.095 2.88331 156.908 3.40864 156.796L4.32796 156.609L3.7698 157.618C3.44147 158.142 3.08031 158.59 2.91615 158.59C2.75198 158.59 2.62065 158.815 2.62065 159.114C2.62065 159.375 2.39082 159.824 2.12816 160.086C1.8655 160.348 1.63567 160.796 1.63567 161.095C1.63567 161.88 2.98181 163.04 3.8683 163.077C4.29513 163.077 4.91895 163.264 5.24728 163.451C5.67411 163.713 6.56059 163.713 7.8739 163.488C9.28572 163.226 10.1065 163.226 10.6975 163.526C11.2885 163.862 11.6825 163.825 12.2735 163.488C12.8973 163.077 13.2257 163.114 14.0465 163.6C14.6046 163.937 15.3598 164.199 15.6881 164.199C17.1328 164.199 20.7115 162.591 23.3382 160.834C24.8485 159.787 26.8513 158.553 27.7378 158.142C28.6571 157.73 30.2659 156.908 31.3494 156.31C32.4329 155.711 33.4178 155.225 33.5163 155.225C33.6148 155.225 35.2893 154.178 37.2921 152.87C39.2621 151.598 43.202 149.206 46.0585 147.56C48.8821 145.915 51.4759 144.382 51.7714 144.195C56.2038 141.317 59.8154 139.185 60.7348 138.849C65.2 137.316 71.2741 136.306 81.4194 135.409C83.4879 135.26 86.2459 134.848 87.4935 134.512C89.8903 133.914 94.3884 133.577 94.7496 133.988C94.8481 134.138 95.6689 133.988 96.5882 133.689C97.8359 133.241 98.591 133.203 99.7402 133.502C103.023 134.287 105.617 134.736 109.163 135.035C111.199 135.222 113.037 135.484 113.3 135.596C113.563 135.671 115.828 135.933 118.356 136.119C123.38 136.531 127.123 137.652 128.633 139.26C129.618 140.307 129.52 141.354 127.911 147.374C127.254 149.729 126.597 152.982 126.4 154.59C125.974 157.992 126.269 159.45 127.714 161.32C128.206 161.993 128.83 163.226 129.06 164.124C129.52 165.881 130.964 167.564 132.048 167.564C132.77 167.564 136.48 170.48 138.91 172.948C149.449 183.716 149.876 184.314 147.676 185.922C146.724 186.595 146.231 186.669 143.539 186.482C139.698 186.221 138.319 186.781 136.71 189.174C135.692 190.707 135.2 192.614 135.856 192.614C136.02 192.614 136.546 192.091 137.104 191.455C138.22 190.109 139.534 189.249 140.519 189.249C141.011 189.249 141.175 189.473 141.175 190.333C141.175 190.932 141.372 191.605 141.635 191.829C141.93 192.128 144.294 192.278 149.055 192.315H156.016L157.69 194.259C159.365 196.166 160.415 196.951 163.534 198.559C164.355 199.008 165.373 199.755 165.8 200.279C166.227 200.802 166.949 201.214 167.376 201.214C167.835 201.214 168.459 201.438 168.722 201.7C169.017 201.999 169.97 202.522 170.856 202.896C171.71 203.233 172.892 204.018 173.483 204.579C174.041 205.139 175.453 206.186 176.602 206.859L178.67 208.093L179.557 206.897C180.378 205.738 180.443 205.7 181.395 206.261C181.954 206.56 183.004 207.607 183.759 208.542C185.073 210.224 185.828 210.449 185.828 209.14C185.828 208.804 186.353 207.906 187.01 207.196C188.389 205.625 188.881 205.85 190.03 208.355C190.457 209.327 190.983 210 191.344 210C191.803 210 191.902 209.626 191.902 207.57C191.902 206.224 191.803 204.878 191.672 204.504C191.212 203.345 189.144 202.298 185.828 201.55C181.789 200.69 181.395 200.466 180.64 198.671C180.312 197.849 179.59 196.989 178.802 196.503C176.142 194.783 174.796 193.138 173.877 190.52C172.629 186.819 171.874 185.772 168.295 182.781C165.143 180.164 158.675 173.77 153.553 168.199C151.156 165.619 150.992 165.358 151.156 164.161C151.255 163.451 151.419 161.469 151.518 159.749C151.747 156.347 152.404 152.421 152.897 151.262C155.556 145.355 155.983 144.756 161.17 140.382C163.797 138.176 167.803 134.325 170.068 131.857C176.7 124.566 178.014 123.295 180.312 122.024C185.795 118.958 192.821 112.49 197.877 105.872C199.059 104.339 201.391 101.385 203.098 99.3288C204.772 97.2724 206.611 94.8795 207.235 94.0196C214.688 83.3263 217.118 79.3257 218.398 75.7738C218.694 74.9512 219.449 72.9322 220.105 71.2871C220.762 69.642 221.287 67.7351 221.287 67.0247C221.287 65.8283 221.845 63.2111 222.666 60.4443C223.717 56.8176 224.308 53.6021 224.932 47.919C225.49 42.722 226.179 41.2638 230.021 37.1136C235.077 31.6548 239.378 28.1029 240.889 28.1029C241.283 28.1029 242.399 27.7664 243.351 27.3925C244.303 26.9812 246.634 26.4578 248.539 26.2708C253.825 25.6726 259.341 24.7753 260.03 24.364C260.358 24.1397 260.949 23.9901 261.311 23.9901C261.836 23.9901 262 23.7658 262 23.0554C262 22.5319 261.869 22.1207 261.672 22.1207C261.508 22.1207 260.851 21.1859 260.194 20.0643C259.57 18.9426 258.914 18.0079 258.75 18.0079C258.618 18.0079 257.896 17.4844 257.206 16.8488C255.86 15.615 251.034 12.7734 250.246 12.7734C249.753 12.7734 246.798 11.8013 245.584 11.2031C245.124 10.9788 243.318 10.4179 241.578 9.96925C238.525 9.1467 236.883 8.28676 232.943 5.48259C230.546 3.7627 226.573 1.66891 225.162 1.4072C224.374 1.25763 223.914 0.958527 223.914 0.622025C223.914 -0.200531 212.915 -0.200531 212.652 0.584641ZM142.653 143.971C142.817 144.794 142.554 145.803 141.668 148.009C140.125 151.898 140.059 152.01 139.369 152.159C138.844 152.309 138.811 152.047 139.041 149.43C139.435 144.682 140.157 142.887 141.701 142.887C142.259 142.887 142.489 143.149 142.653 143.971ZM141.504 165.395C141.504 165.918 141.701 166.442 141.93 166.554C142.127 166.629 142.226 166.816 142.127 166.928C142.029 167.078 141.405 166.666 140.748 166.031C139.566 164.946 139.107 163.301 139.763 162.553C140.157 162.105 141.504 164.311 141.504 165.395ZM148.891 171.901C152.929 175.415 163.173 186.482 163.173 187.268C163.173 187.529 162.845 187.754 162.418 187.754C161.86 187.754 161.335 187.193 160.382 185.548C159.66 184.314 158.642 183.043 158.084 182.706C153.947 180.164 151.879 178.406 147.512 173.508C145.279 171.041 143.473 168.91 143.473 168.835C143.473 168.76 143.867 168.685 144.393 168.685C145.017 168.685 146.396 169.695 148.891 171.901Z" fill="#E4292D"/>
</svg>
