<svg width="68" height="68" viewBox="0 0 68 68" fill="none" xmlns="http://www.w3.org/2000/svg">
<path d="M29.7107 1H56.3817C64.5956 1 67.9327 7.05983 66.7783 10.1409L57.0474 36.1081C55.1649 41.1316 50.3544 43.292 45.279 44.0467C44.0843 44.2244 42.4439 44.2874 26.662 44.2874L16.7731 67H1L29.7107 1ZM42.0973 31.6722C42.5902 31.5259 43.3265 31.0055 43.9251 30.3805C44.9364 29.3247 45.2319 28.7144 49.9606 17.921C51.3828 14.6744 51.4566 13.076 50.0514 13.042L40.334 12.8059L32.1227 31.6888C31.9964 31.9793 41.0124 31.9943 42.0973 31.6722Z" fill="#2480FE" stroke="#2480FE" stroke-linecap="round" stroke-linejoin="round"/>
</svg>
