<svg width="40" height="40" viewBox="0 0 40 40" fill="none" xmlns="http://www.w3.org/2000/svg">
<path d="M17.9958 5.58008H30.4558C34.2931 5.58008 35.8521 8.22791 35.3128 9.57416L30.7668 20.9205C29.8873 23.1155 27.64 24.0595 25.2689 24.3892C24.7108 24.4669 23.9444 24.4944 16.5716 24.4944L11.9518 34.4187H4.58301L17.9958 5.58008ZM23.7825 18.9822C24.0128 18.9183 24.3568 18.6909 24.6364 18.4178C25.1088 17.9565 25.2469 17.6898 27.456 12.9737C28.1204 11.5551 28.1549 10.8567 27.4984 10.8418L22.9588 10.7387L19.1227 18.9895C19.0637 19.1164 23.2757 19.123 23.7825 18.9822Z" fill="#2480FE" stroke="#2480FE" stroke-linecap="round" stroke-linejoin="round"/>
</svg>
