<svg width="48" height="48" viewBox="0 0 48 48" fill="none" xmlns="http://www.w3.org/2000/svg">
<g clip-path="url(#clip0_1796_7609)">
<path d="M24 48C37.2548 48 48 37.2548 48 24C48 10.7452 37.2548 0 24 0C10.7452 0 0 10.7452 0 24C0 37.2548 10.7452 48 24 48Z" fill="#2CA01C"/>
<path d="M5.78503 23.9922C5.78695 29.4182 10.1626 33.8303 15.5886 33.8783H16.9767V30.2514H15.5886C12.2247 31.1692 8.75527 29.1858 7.83943 25.822C7.83175 25.7951 7.82599 25.7682 7.81831 25.7414C6.87559 22.3334 8.84935 18.8025 12.2458 17.8214H12.939C13.8087 17.6313 14.7092 17.6313 15.579 17.8214H18.9505V37.077C18.9332 39.1142 20.571 40.7807 22.6081 40.7999V14.0082H15.6097C10.1454 14.037 5.74087 18.4895 5.76967 23.9538V23.9558L5.78503 23.9922ZM32.425 14.0121H31.0369V17.831H32.425C35.7812 16.9151 39.243 18.8927 40.1588 22.247C40.1665 22.2719 40.1722 22.2988 40.1799 22.3238C41.1169 25.7202 39.1489 29.2377 35.7658 30.2169H35.0727C34.203 30.407 33.3025 30.407 32.4327 30.2169H29.0612V10.9631C29.0785 8.92599 27.4407 7.25943 25.4036 7.24023V34.0703H32.402C37.9143 33.9839 42.313 29.447 42.2286 23.9346C42.1441 18.5433 37.7953 14.1926 32.402 14.1081L32.425 14.0121Z" fill="white"/>
</g>
<defs>
<clipPath id="clip0_1796_7609">
<rect width="48" height="48" fill="white"/>
</clipPath>
</defs>
</svg>
