<?xml version="1.0" encoding="UTF-8"?>
<svg id="Layer_1" data-name="Layer 1" xmlns="http://www.w3.org/2000/svg" xmlns:xlink="http://www.w3.org/1999/xlink" viewBox="0 0 100 70.23">
  <defs>
    <style>
      .cls-1 {
        fill: #00a1e0;
      }

      .cls-1, .cls-2 {
        stroke-width: 0px;
      }

      .cls-2 {
        fill: none;
      }

      .cls-3 {
        clip-path: url(#clippath);
      }
    </style>
    <clipPath id="clippath">
      <rect class="cls-2" width="100" height="70.23"/>
    </clipPath>
  </defs>
  <g class="cls-3">
    <path class="cls-1" d="M50.1,1.11c-11.97,0-22.04,7.66-25.95,18.39-1.09-.22-2.21-.34-3.36-.34-6.43,0-11.91,4.44-13.56,10.31C3.13,30.04,0,34.63,0,40.01c0,6.84,5.56,12.39,12.39,12.39h19.93v-9.07h-7.53c-.07-1.1-.11-2.21-.11-3.32,0-9.07,7.36-16.43,16.43-16.43s16.43,7.36,16.43,16.43c0,1.11-.04,2.22-.11,3.32h-7.53v9.07h20.04c6.84,0,12.39-5.56,12.39-12.39,0-5.32-3.33-9.89-7.99-11.69,1.2-3.63,1.87-7.53,1.87-11.6,0-14.63-11.87-26.5-26.5-26.5ZM50.1,10.18c8.56,0,15.63,5.94,17.21,13.8-.3-.02-.6-.05-.91-.05-3.38,0-6.51.98-9.07,2.67-3.85-5.77-10.3-9.73-17.71-9.73-4.89,0-9.35,1.72-12.85,4.57.02-.26.04-.53.04-.8,0-5.87,4.76-10.63,10.63-10.63.91,0,1.79.12,2.63.35-.32-1.3-.49-2.65-.49-4.03,0-1.17.08-2.32.24-3.45.88-.19,1.77-.29,2.69-.29h.01Z"/>
    <path class="cls-1" d="M45.66,69.12h8.87c.62,0,1.11-.5,1.11-1.11v-9.07h-11.1v9.07c0,.62.5,1.11,1.11,1.11Z"/>
  </g>
</svg>
