<svg width="48" height="48" viewBox="0 0 48 48" fill="none" xmlns="http://www.w3.org/2000/svg">
<g clip-path="url(#clip0_1796_7612)">
<path d="M10.0952 30.2473C10.0952 33.0283 7.84761 35.2759 5.06666 35.2759C2.28571 35.2759 0.0380859 33.0283 0.0380859 30.2473C0.0380859 27.4664 2.28571 25.2188 5.06666 25.2188H10.0952V30.2473ZM12.6095 30.2473C12.6095 27.4664 14.8571 25.2188 17.6381 25.2188C20.419 25.2188 22.6667 27.4664 22.6667 30.2473V42.8187C22.6667 45.5997 20.419 47.8473 17.6381 47.8473C14.8571 47.8473 12.6095 45.5997 12.6095 42.8187V30.2473Z" fill="#E01E5A"/>
<path d="M17.6381 10.0571C14.8571 10.0571 12.6095 7.80952 12.6095 5.02857C12.6095 2.24762 14.8571 0 17.6381 0C20.419 0 22.6667 2.24762 22.6667 5.02857V10.0571H17.6381ZM17.6381 12.6095C20.419 12.6095 22.6667 14.8571 22.6667 17.6381C22.6667 20.419 20.419 22.6667 17.6381 22.6667H5.02857C2.24762 22.6667 0 20.419 0 17.6381C0 14.8571 2.24762 12.6095 5.02857 12.6095H17.6381Z" fill="#36C5F0"/>
<path d="M37.7907 17.6381C37.7907 14.8571 40.0383 12.6095 42.8192 12.6095C45.6002 12.6095 47.8478 14.8571 47.8478 17.6381C47.8478 20.419 45.6002 22.6667 42.8192 22.6667H37.7907V17.6381ZM35.2764 17.6381C35.2764 20.419 33.0288 22.6667 30.2478 22.6667C27.4669 22.6667 25.2192 20.419 25.2192 17.6381V5.02857C25.2192 2.24762 27.4669 0 30.2478 0C33.0288 0 35.2764 2.24762 35.2764 5.02857V17.6381Z" fill="#2EB67D"/>
<path d="M30.2478 37.7902C33.0288 37.7902 35.2764 40.0378 35.2764 42.8187C35.2764 45.5997 33.0288 47.8473 30.2478 47.8473C27.4669 47.8473 25.2192 45.5997 25.2192 42.8187V37.7902H30.2478ZM30.2478 35.2759C27.4669 35.2759 25.2192 33.0283 25.2192 30.2473C25.2192 27.4664 27.4669 25.2188 30.2478 25.2188H42.8573C45.6383 25.2188 47.8859 27.4664 47.8859 30.2473C47.8859 33.0283 45.6383 35.2759 42.8573 35.2759H30.2478Z" fill="#ECB22E"/>
</g>
<defs>
<clipPath id="clip0_1796_7612">
<rect width="48" height="48" fill="white"/>
</clipPath>
</defs>
</svg>
