<svg width="256" height="239" viewBox="0 0 256 239" fill="none" xmlns="http://www.w3.org/2000/svg">
<g clip-path="url(#clip0_2_14919)">
<path d="M119.541 100.503C108.93 118.339 98.7648 135.611 88.3878 152.753C85.7228 157.154 84.4042 160.738 86.5334 166.333C92.4109 181.787 84.1195 196.826 68.5352 200.908C53.8385 204.759 39.5195 195.1 36.6034 179.365C34.0196 165.438 44.8276 151.785 60.1826 149.608C61.4696 149.424 62.7823 149.403 64.945 149.24C72.4693 136.624 80.1775 123.7 88.3028 110.073C73.612 95.4653 64.8679 78.3884 66.8034 57.2291C68.1714 42.2715 74.0529 29.3461 84.8035 18.7517C105.394 -1.53584 136.805 -4.82154 161.049 10.7509C184.333 25.7085 194.997 54.8449 185.907 79.7822C179.053 77.9238 172.151 76.0497 164.564 73.9917C167.418 60.1273 165.307 47.6765 155.956 37.0108C149.778 29.9689 141.851 26.2779 132.836 24.9178C114.764 22.1876 97.0211 33.7982 91.7565 51.5355C85.7802 71.6668 94.8247 88.1111 119.541 100.503Z" fill="#C73A63"/>
<path d="M149.841 79.4101C157.316 92.5964 164.906 105.982 172.428 119.246C210.449 107.483 239.115 128.53 249.399 151.063C261.82 178.282 253.329 210.52 228.933 227.312C203.893 244.551 172.226 241.605 150.041 219.461C155.695 214.729 161.377 209.974 167.448 204.895C189.361 219.088 208.525 218.42 222.753 201.614C234.886 187.277 234.623 165.9 222.139 151.863C207.731 135.666 188.432 135.172 165.104 150.721C155.426 133.553 145.581 116.521 136.21 99.2291C133.051 93.401 129.562 90.0204 122.441 88.7868C110.548 86.7249 102.869 76.5119 102.408 65.0693C101.956 53.7532 108.622 43.5245 119.042 39.5389C129.364 35.591 141.477 38.7778 148.42 47.5535C154.094 54.7239 155.897 62.7938 152.912 71.6368C152.081 74.102 151.006 76.4882 149.841 79.4101Z" fill="#4B4B4B"/>
<path d="M167.707 187.21H121.937C117.55 205.254 108.074 219.822 91.7465 229.086C79.0545 236.286 65.374 238.728 50.8137 236.377C24.0062 232.053 2.08576 207.921 0.156255 180.746C-2.02828 149.962 19.1311 122.599 47.3343 116.453C49.2816 123.525 51.2486 130.663 53.1959 137.717C27.3196 150.919 18.364 167.553 25.6056 188.353C31.9813 206.658 50.0901 216.691 69.7529 212.81C89.8328 208.848 99.9568 192.161 98.7212 165.379C117.757 165.379 136.809 165.181 155.847 165.476C163.281 165.592 169.02 164.821 174.62 158.268C183.841 147.483 200.811 148.456 210.741 158.641C220.889 169.05 220.403 185.799 209.664 195.768C199.303 205.388 182.934 204.874 173.24 194.509C171.248 192.372 169.678 189.836 167.707 187.21Z" fill="#4A4A4A"/>
</g>
<defs>
<clipPath id="clip0_2_14919">
<rect width="256" height="239" fill="white"/>
</clipPath>
</defs>
</svg>
