<svg width="548" height="402" viewBox="0 0 548 402" fill="none" xmlns="http://www.w3.org/2000/svg">
<g filter="url(#filter0_d_1516_8585)">
<g clip-path="url(#clip0_1516_8585)">
<path d="M4 18C4 9.16344 11.1634 2 20 2H528C536.837 2 544 9.16344 544 18V380C544 388.837 536.837 396 528 396H20C11.1635 396 4 388.837 4 380V18Z" fill="white"/>
</g>
<path d="M20 2.5H528C536.56 2.5 543.5 9.43959 543.5 18V380C543.5 388.56 536.56 395.5 528 395.5H20C11.4396 395.5 4.5 388.56 4.5 380V18C4.5 9.43959 11.4396 2.5 20 2.5Z" stroke="#F0F2F5"/>
</g>
<g filter="url(#filter1_d_1516_8585)">
<rect x="23" y="265" width="490" height="98" rx="8" fill="white"/>
<rect x="23.5" y="265.5" width="489" height="97" rx="7.5" stroke="#E3E6EA"/>
<path d="M379.261 316.286C377.839 316.286 376.6 316.043 375.543 315.558C374.485 315.055 373.523 314.301 372.657 313.296L375.231 310.67C375.803 311.363 376.435 311.909 377.129 312.308C377.822 312.689 378.619 312.88 379.521 312.88C380.37 312.88 381.029 312.724 381.497 312.412C381.965 312.083 382.199 311.623 382.199 311.034C382.199 310.531 382.043 310.124 381.731 309.812C381.436 309.5 381.037 309.231 380.535 309.006C380.032 308.781 379.477 308.564 378.871 308.356C378.264 308.148 377.657 307.914 377.051 307.654C376.461 307.377 375.915 307.039 375.413 306.64C374.91 306.224 374.503 305.713 374.191 305.106C373.879 304.482 373.723 303.702 373.723 302.766C373.723 301.639 373.991 300.669 374.529 299.854C375.083 299.039 375.837 298.424 376.791 298.008C377.744 297.575 378.836 297.358 380.067 297.358C381.263 297.358 382.381 297.583 383.421 298.034C384.461 298.485 385.31 299.1 385.969 299.88L383.395 302.506C382.857 301.934 382.311 301.501 381.757 301.206C381.219 300.894 380.63 300.738 379.989 300.738C379.243 300.738 378.663 300.877 378.247 301.154C377.831 301.431 377.623 301.839 377.623 302.376C377.623 302.844 377.779 303.225 378.091 303.52C378.403 303.797 378.81 304.04 379.313 304.248C379.833 304.456 380.387 304.664 380.977 304.872C381.583 305.08 382.19 305.323 382.797 305.6C383.403 305.877 383.958 306.233 384.461 306.666C384.981 307.082 385.397 307.619 385.709 308.278C386.021 308.919 386.177 309.717 386.177 310.67C386.177 312.421 385.561 313.799 384.331 314.804C383.117 315.792 381.427 316.286 379.261 316.286ZM378.403 314.258H381.263V318.626H378.403V314.258ZM381.263 299.23H378.403V295.018H381.263V299.23ZM388.011 313.712L395.057 306.432C395.49 305.999 395.837 305.6 396.097 305.236C396.357 304.872 396.547 304.534 396.669 304.222C396.79 303.893 396.851 303.563 396.851 303.234C396.851 302.523 396.617 301.969 396.149 301.57C395.698 301.154 395.1 300.946 394.355 300.946C393.627 300.946 392.968 301.145 392.379 301.544C391.807 301.925 391.252 302.558 390.715 303.442L387.985 301.076C388.713 299.845 389.64 298.918 390.767 298.294C391.893 297.67 393.185 297.358 394.641 297.358C395.906 297.358 396.998 297.592 397.917 298.06C398.853 298.528 399.572 299.195 400.075 300.062C400.595 300.929 400.855 301.943 400.855 303.104C400.855 303.832 400.759 304.508 400.569 305.132C400.378 305.739 400.066 306.345 399.633 306.952C399.217 307.541 398.653 308.191 397.943 308.902L393.055 313.764L388.011 313.712ZM388.011 316V313.712L391.469 312.516H401.219V316H388.011ZM403.467 319.12L405.365 315.584L406.535 315.246C406.413 315.506 406.266 315.723 406.093 315.896C405.919 316.052 405.72 316.13 405.494 316.13C404.992 316.13 404.533 315.922 404.117 315.506C403.701 315.09 403.493 314.57 403.493 313.946C403.493 313.27 403.718 312.689 404.169 312.204C404.637 311.719 405.209 311.476 405.884 311.476C406.526 311.476 407.081 311.719 407.549 312.204C408.034 312.672 408.277 313.253 408.277 313.946C408.277 314.223 408.225 314.544 408.121 314.908C408.017 315.272 407.809 315.749 407.497 316.338L405.391 320.186L403.467 319.12ZM410.05 313.712L417.096 306.432C417.529 305.999 417.876 305.6 418.136 305.236C418.396 304.872 418.586 304.534 418.708 304.222C418.829 303.893 418.89 303.563 418.89 303.234C418.89 302.523 418.656 301.969 418.188 301.57C417.737 301.154 417.139 300.946 416.394 300.946C415.666 300.946 415.007 301.145 414.418 301.544C413.846 301.925 413.291 302.558 412.754 303.442L410.024 301.076C410.752 299.845 411.679 298.918 412.806 298.294C413.932 297.67 415.224 297.358 416.68 297.358C417.945 297.358 419.037 297.592 419.956 298.06C420.892 298.528 421.611 299.195 422.114 300.062C422.634 300.929 422.894 301.943 422.894 303.104C422.894 303.832 422.798 304.508 422.608 305.132C422.417 305.739 422.105 306.345 421.672 306.952C421.256 307.541 420.692 308.191 419.982 308.902L415.094 313.764L410.05 313.712ZM410.05 316V313.712L413.508 312.516H423.258V316H410.05ZM431.564 316.286C430.281 316.286 429.12 316 428.08 315.428C427.057 314.856 426.242 314.093 425.636 313.14C425.046 312.169 424.752 311.086 424.752 309.89C424.752 308.33 425.298 306.753 426.39 305.158L431.564 297.644H436.166L430.42 305.652L428.886 305.782C429.128 305.366 429.38 305.011 429.64 304.716C429.917 304.404 430.264 304.17 430.68 304.014C431.096 303.841 431.624 303.754 432.266 303.754C433.41 303.754 434.432 304.023 435.334 304.56C436.252 305.08 436.989 305.799 437.544 306.718C438.098 307.619 438.376 308.659 438.376 309.838C438.376 311.034 438.072 312.126 437.466 313.114C436.859 314.085 436.044 314.856 435.022 315.428C433.999 316 432.846 316.286 431.564 316.286ZM431.564 312.724C432.101 312.724 432.586 312.594 433.02 312.334C433.453 312.074 433.791 311.719 434.034 311.268C434.276 310.817 434.398 310.315 434.398 309.76C434.398 309.188 434.276 308.685 434.034 308.252C433.791 307.801 433.453 307.455 433.02 307.212C432.586 306.952 432.101 306.822 431.564 306.822C431.009 306.822 430.515 306.952 430.082 307.212C429.666 307.455 429.336 307.801 429.094 308.252C428.851 308.685 428.73 309.188 428.73 309.76C428.73 310.315 428.851 310.817 429.094 311.268C429.336 311.719 429.666 312.074 430.082 312.334C430.515 312.594 431.009 312.724 431.564 312.724ZM439.552 309.63L445.584 297.644H450.03L443.868 309.63H439.552ZM439.552 311.918V309.63L440.904 308.46H454.268V311.918H439.552ZM448.21 316V304.638H452.214V316H448.21ZM458.064 316.286C457.388 316.286 456.825 316.052 456.374 315.584C455.923 315.116 455.698 314.553 455.698 313.894C455.698 313.201 455.923 312.629 456.374 312.178C456.825 311.71 457.388 311.476 458.064 311.476C458.757 311.476 459.321 311.71 459.754 312.178C460.205 312.629 460.43 313.201 460.43 313.894C460.43 314.553 460.205 315.116 459.754 315.584C459.321 316.052 458.757 316.286 458.064 316.286ZM463.701 316L469.473 307.966L470.981 307.862C470.756 308.261 470.505 308.616 470.227 308.928C469.967 309.223 469.629 309.457 469.213 309.63C468.815 309.786 468.277 309.864 467.601 309.864C466.492 309.864 465.469 309.604 464.533 309.084C463.615 308.547 462.878 307.827 462.323 306.926C461.786 306.007 461.517 304.967 461.517 303.806C461.517 302.593 461.821 301.501 462.427 300.53C463.034 299.559 463.849 298.788 464.871 298.216C465.894 297.644 467.047 297.358 468.329 297.358C469.612 297.358 470.765 297.644 471.787 298.216C472.81 298.771 473.616 299.533 474.205 300.504C474.812 301.457 475.115 302.541 475.115 303.754C475.115 305.314 474.578 306.883 473.503 308.46L468.329 316H463.701ZM468.329 306.822C468.867 306.822 469.352 306.692 469.785 306.432C470.219 306.172 470.557 305.825 470.799 305.392C471.042 304.941 471.163 304.439 471.163 303.884C471.163 303.312 471.042 302.801 470.799 302.35C470.557 301.899 470.219 301.553 469.785 301.31C469.352 301.05 468.867 300.92 468.329 300.92C467.775 300.92 467.281 301.05 466.847 301.31C466.431 301.553 466.093 301.899 465.833 302.35C465.591 302.801 465.469 303.312 465.469 303.884C465.469 304.439 465.591 304.941 465.833 305.392C466.093 305.825 466.44 306.172 466.873 306.432C467.307 306.692 467.792 306.822 468.329 306.822ZM478.253 316L484.493 299.932H488.471L482.465 316H478.253ZM475.809 301.102V297.644H488.471V299.932L487.119 301.102H475.809Z" fill="#19213D"/>
<path d="M453.324 339V329.2H454.906V339H453.324ZM451.364 330.642V329.2H454.766V330.642H451.364ZM456.369 338.048L459.981 334.212C460.279 333.895 460.522 333.61 460.709 333.358C460.895 333.106 461.031 332.868 461.115 332.644C461.199 332.42 461.241 332.191 461.241 331.958C461.241 331.519 461.096 331.179 460.807 330.936C460.527 330.684 460.167 330.558 459.729 330.558C459.262 330.558 458.851 330.675 458.497 330.908C458.142 331.141 457.825 331.505 457.545 332L456.425 331.076C456.807 330.413 457.279 329.914 457.839 329.578C458.399 329.233 459.047 329.06 459.785 329.06C460.391 329.06 460.923 329.181 461.381 329.424C461.838 329.667 462.193 330.007 462.445 330.446C462.697 330.875 462.823 331.375 462.823 331.944C462.823 332.355 462.771 332.723 462.669 333.05C462.575 333.367 462.412 333.689 462.179 334.016C461.945 334.333 461.623 334.707 461.213 335.136L458.441 338.006L456.369 338.048ZM456.369 339V338.048L457.755 337.558H463.019V339H456.369ZM463.677 339.56L467.597 328.64H469.039L465.119 339.56H463.677ZM469.491 339V332.28H471.031V339H469.491ZM473.957 339V334.996C473.957 334.548 473.817 334.203 473.537 333.96C473.257 333.708 472.911 333.582 472.501 333.582C472.221 333.582 471.969 333.638 471.745 333.75C471.53 333.862 471.357 334.025 471.227 334.24C471.096 334.445 471.031 334.697 471.031 334.996L470.429 334.66C470.429 334.147 470.541 333.703 470.765 333.33C470.989 332.957 471.292 332.667 471.675 332.462C472.057 332.247 472.487 332.14 472.963 332.14C473.439 332.14 473.868 332.243 474.251 332.448C474.633 332.653 474.937 332.943 475.161 333.316C475.385 333.689 475.497 334.137 475.497 334.66V339H473.957ZM478.423 339V334.996C478.423 334.548 478.283 334.203 478.003 333.96C477.723 333.708 477.377 333.582 476.967 333.582C476.696 333.582 476.449 333.638 476.225 333.75C476.001 333.862 475.823 334.025 475.693 334.24C475.562 334.445 475.497 334.697 475.497 334.996L474.629 334.66C474.675 334.147 474.825 333.703 475.077 333.33C475.329 332.957 475.651 332.667 476.043 332.462C476.444 332.247 476.883 332.14 477.359 332.14C477.844 332.14 478.283 332.243 478.675 332.448C479.067 332.653 479.379 332.943 479.613 333.316C479.846 333.689 479.963 334.137 479.963 334.66V339H478.423ZM484.629 339.14C483.976 339.14 483.383 338.986 482.851 338.678C482.319 338.361 481.895 337.936 481.577 337.404C481.269 336.872 481.115 336.279 481.115 335.626C481.115 334.973 481.269 334.385 481.577 333.862C481.895 333.339 482.319 332.924 482.851 332.616C483.383 332.299 483.976 332.14 484.629 332.14C485.292 332.14 485.889 332.294 486.421 332.602C486.953 332.91 487.373 333.33 487.681 333.862C487.999 334.385 488.157 334.973 488.157 335.626C488.157 336.279 487.999 336.872 487.681 337.404C487.373 337.936 486.953 338.361 486.421 338.678C485.889 338.986 485.292 339.14 484.629 339.14ZM484.629 337.656C485.012 337.656 485.348 337.572 485.637 337.404C485.936 337.227 486.165 336.984 486.323 336.676C486.491 336.368 486.575 336.018 486.575 335.626C486.575 335.234 486.491 334.889 486.323 334.59C486.155 334.291 485.927 334.058 485.637 333.89C485.348 333.713 485.012 333.624 484.629 333.624C484.256 333.624 483.92 333.713 483.621 333.89C483.332 334.058 483.103 334.291 482.935 334.59C482.777 334.889 482.697 335.234 482.697 335.626C482.697 336.018 482.777 336.368 482.935 336.676C483.103 336.984 483.332 337.227 483.621 337.404C483.92 337.572 484.256 337.656 484.629 337.656Z" fill="#BAC0CC"/>
</g>
<g filter="url(#filter2_d_1516_8585)">
<rect x="23.5" y="148.5" width="489" height="97" rx="7.5" fill="white"/>
<rect x="23.5" y="148.5" width="489" height="97" rx="7.5" stroke="#E3E6EA"/>
<path d="M377.737 199.286C376.316 199.286 375.077 199.043 374.019 198.558C372.962 198.055 372 197.301 371.133 196.296L373.707 193.67C374.279 194.363 374.912 194.909 375.605 195.308C376.299 195.689 377.096 195.88 377.997 195.88C378.847 195.88 379.505 195.724 379.973 195.412C380.441 195.083 380.675 194.623 380.675 194.034C380.675 193.531 380.519 193.124 380.207 192.812C379.913 192.5 379.514 192.231 379.011 192.006C378.509 191.781 377.954 191.564 377.347 191.356C376.741 191.148 376.134 190.914 375.527 190.654C374.938 190.377 374.392 190.039 373.889 189.64C373.387 189.224 372.979 188.713 372.667 188.106C372.355 187.482 372.199 186.702 372.199 185.766C372.199 184.639 372.468 183.669 373.005 182.854C373.56 182.039 374.314 181.424 375.267 181.008C376.221 180.575 377.313 180.358 378.543 180.358C379.739 180.358 380.857 180.583 381.897 181.034C382.937 181.485 383.787 182.1 384.445 182.88L381.871 185.506C381.334 184.934 380.788 184.501 380.233 184.206C379.696 183.894 379.107 183.738 378.465 183.738C377.72 183.738 377.139 183.877 376.723 184.154C376.307 184.431 376.099 184.839 376.099 185.376C376.099 185.844 376.255 186.225 376.567 186.52C376.879 186.797 377.287 187.04 377.789 187.248C378.309 187.456 378.864 187.664 379.453 187.872C380.06 188.08 380.667 188.323 381.273 188.6C381.88 188.877 382.435 189.233 382.937 189.666C383.457 190.082 383.873 190.619 384.185 191.278C384.497 191.919 384.653 192.717 384.653 193.67C384.653 195.421 384.038 196.799 382.807 197.804C381.594 198.792 379.904 199.286 377.737 199.286ZM376.879 197.258H379.739V201.626H376.879V197.258ZM379.739 182.23H376.879V178.018H379.739V182.23ZM386.487 196.712L393.533 189.432C393.967 188.999 394.313 188.6 394.573 188.236C394.833 187.872 395.024 187.534 395.145 187.222C395.267 186.893 395.327 186.563 395.327 186.234C395.327 185.523 395.093 184.969 394.625 184.57C394.175 184.154 393.577 183.946 392.831 183.946C392.103 183.946 391.445 184.145 390.855 184.544C390.283 184.925 389.729 185.558 389.191 186.442L386.461 184.076C387.189 182.845 388.117 181.918 389.243 181.294C390.37 180.67 391.661 180.358 393.117 180.358C394.383 180.358 395.475 180.592 396.393 181.06C397.329 181.528 398.049 182.195 398.551 183.062C399.071 183.929 399.331 184.943 399.331 186.104C399.331 186.832 399.236 187.508 399.045 188.132C398.855 188.739 398.543 189.345 398.109 189.952C397.693 190.541 397.13 191.191 396.419 191.902L391.531 196.764L386.487 196.712ZM386.487 199V196.712L389.945 195.516H399.695V199H386.487ZM401.943 202.12L403.841 198.584L405.011 198.246C404.89 198.506 404.742 198.723 404.569 198.896C404.396 199.052 404.196 199.13 403.971 199.13C403.468 199.13 403.009 198.922 402.593 198.506C402.177 198.09 401.969 197.57 401.969 196.946C401.969 196.27 402.194 195.689 402.645 195.204C403.113 194.719 403.685 194.476 404.361 194.476C405.002 194.476 405.557 194.719 406.025 195.204C406.51 195.672 406.753 196.253 406.753 196.946C406.753 197.223 406.701 197.544 406.597 197.908C406.493 198.272 406.285 198.749 405.973 199.338L403.867 203.186L401.943 202.12ZM416.079 199.286C414.605 199.286 413.271 198.887 412.075 198.09C410.879 197.293 409.934 196.183 409.241 194.762C408.565 193.323 408.227 191.668 408.227 189.796C408.227 187.907 408.565 186.26 409.241 184.856C409.917 183.435 410.844 182.334 412.023 181.554C413.201 180.757 414.536 180.358 416.027 180.358C417.535 180.358 418.878 180.757 420.057 181.554C421.235 182.334 422.163 183.435 422.839 184.856C423.532 186.277 423.879 187.933 423.879 189.822C423.879 191.711 423.532 193.367 422.839 194.788C422.163 196.209 421.235 197.319 420.057 198.116C418.895 198.896 417.569 199.286 416.079 199.286ZM416.053 195.672C416.815 195.672 417.474 195.455 418.029 195.022C418.583 194.571 419.008 193.913 419.303 193.046C419.615 192.162 419.771 191.087 419.771 189.822C419.771 188.539 419.615 187.465 419.303 186.598C419.008 185.731 418.583 185.081 418.029 184.648C417.474 184.197 416.807 183.972 416.027 183.972C415.281 183.972 414.623 184.189 414.051 184.622C413.496 185.055 413.071 185.705 412.777 186.572C412.482 187.439 412.335 188.513 412.335 189.796C412.335 191.079 412.482 192.153 412.777 193.02C413.071 193.887 413.496 194.545 414.051 194.996C414.623 195.447 415.29 195.672 416.053 195.672ZM431.315 199.286C430.05 199.286 428.862 199.069 427.753 198.636C426.661 198.185 425.751 197.544 425.023 196.712L427.675 194.086C428.004 194.571 428.481 194.97 429.105 195.282C429.746 195.577 430.44 195.724 431.185 195.724C431.844 195.724 432.416 195.611 432.901 195.386C433.386 195.143 433.768 194.805 434.045 194.372C434.322 193.921 434.461 193.401 434.461 192.812C434.461 192.205 434.322 191.685 434.045 191.252C433.768 190.819 433.378 190.489 432.875 190.264C432.39 190.021 431.835 189.9 431.211 189.9C430.587 189.9 430.015 189.987 429.495 190.16C428.975 190.316 428.498 190.559 428.065 190.888L428.403 188.288C428.802 187.976 429.183 187.725 429.547 187.534C429.911 187.326 430.31 187.17 430.743 187.066C431.176 186.962 431.688 186.91 432.277 186.91C433.629 186.91 434.764 187.187 435.683 187.742C436.619 188.297 437.321 189.033 437.789 189.952C438.274 190.871 438.517 191.885 438.517 192.994C438.517 194.207 438.214 195.291 437.607 196.244C437.018 197.197 436.186 197.943 435.111 198.48C434.036 199.017 432.771 199.286 431.315 199.286ZM428.065 190.888L426.297 189.25L427.181 180.644H430.873L429.911 189.172L428.065 190.888ZM427.727 184.102L427.181 180.644H437.503V184.102H427.727ZM446.722 199.286C445.439 199.286 444.278 199 443.238 198.428C442.215 197.856 441.4 197.093 440.794 196.14C440.204 195.169 439.91 194.086 439.91 192.89C439.91 191.33 440.456 189.753 441.548 188.158L446.722 180.644H451.324L445.578 188.652L444.044 188.782C444.286 188.366 444.538 188.011 444.798 187.716C445.075 187.404 445.422 187.17 445.838 187.014C446.254 186.841 446.782 186.754 447.424 186.754C448.568 186.754 449.59 187.023 450.492 187.56C451.41 188.08 452.147 188.799 452.702 189.718C453.256 190.619 453.534 191.659 453.534 192.838C453.534 194.034 453.23 195.126 452.624 196.114C452.017 197.085 451.202 197.856 450.18 198.428C449.157 199 448.004 199.286 446.722 199.286ZM446.722 195.724C447.259 195.724 447.744 195.594 448.178 195.334C448.611 195.074 448.949 194.719 449.192 194.268C449.434 193.817 449.556 193.315 449.556 192.76C449.556 192.188 449.434 191.685 449.192 191.252C448.949 190.801 448.611 190.455 448.178 190.212C447.744 189.952 447.259 189.822 446.722 189.822C446.167 189.822 445.673 189.952 445.24 190.212C444.824 190.455 444.494 190.801 444.252 191.252C444.009 191.685 443.888 192.188 443.888 192.76C443.888 193.315 444.009 193.817 444.252 194.268C444.494 194.719 444.824 195.074 445.24 195.334C445.673 195.594 446.167 195.724 446.722 195.724ZM458.064 199.286C457.388 199.286 456.825 199.052 456.374 198.584C455.923 198.116 455.698 197.553 455.698 196.894C455.698 196.201 455.923 195.629 456.374 195.178C456.825 194.71 457.388 194.476 458.064 194.476C458.757 194.476 459.321 194.71 459.754 195.178C460.205 195.629 460.43 196.201 460.43 196.894C460.43 197.553 460.205 198.116 459.754 198.584C459.321 199.052 458.757 199.286 458.064 199.286ZM463.701 199L469.473 190.966L470.981 190.862C470.756 191.261 470.505 191.616 470.227 191.928C469.967 192.223 469.629 192.457 469.213 192.63C468.815 192.786 468.277 192.864 467.601 192.864C466.492 192.864 465.469 192.604 464.533 192.084C463.615 191.547 462.878 190.827 462.323 189.926C461.786 189.007 461.517 187.967 461.517 186.806C461.517 185.593 461.821 184.501 462.427 183.53C463.034 182.559 463.849 181.788 464.871 181.216C465.894 180.644 467.047 180.358 468.329 180.358C469.612 180.358 470.765 180.644 471.787 181.216C472.81 181.771 473.616 182.533 474.205 183.504C474.812 184.457 475.115 185.541 475.115 186.754C475.115 188.314 474.578 189.883 473.503 191.46L468.329 199H463.701ZM468.329 189.822C468.867 189.822 469.352 189.692 469.785 189.432C470.219 189.172 470.557 188.825 470.799 188.392C471.042 187.941 471.163 187.439 471.163 186.884C471.163 186.312 471.042 185.801 470.799 185.35C470.557 184.899 470.219 184.553 469.785 184.31C469.352 184.05 468.867 183.92 468.329 183.92C467.775 183.92 467.281 184.05 466.847 184.31C466.431 184.553 466.093 184.899 465.833 185.35C465.591 185.801 465.469 186.312 465.469 186.884C465.469 187.439 465.591 187.941 465.833 188.392C466.093 188.825 466.44 189.172 466.873 189.432C467.307 189.692 467.792 189.822 468.329 189.822ZM478.253 199L484.493 182.932H488.471L482.465 199H478.253ZM475.809 184.102V180.644H488.471V182.932L487.119 184.102H475.809Z" fill="#19213D"/>
<path d="M453.324 222V212.2H454.906V222H453.324ZM451.364 213.642V212.2H454.766V213.642H451.364ZM456.369 221.048L459.981 217.212C460.279 216.895 460.522 216.61 460.709 216.358C460.895 216.106 461.031 215.868 461.115 215.644C461.199 215.42 461.241 215.191 461.241 214.958C461.241 214.519 461.096 214.179 460.807 213.936C460.527 213.684 460.167 213.558 459.729 213.558C459.262 213.558 458.851 213.675 458.497 213.908C458.142 214.141 457.825 214.505 457.545 215L456.425 214.076C456.807 213.413 457.279 212.914 457.839 212.578C458.399 212.233 459.047 212.06 459.785 212.06C460.391 212.06 460.923 212.181 461.381 212.424C461.838 212.667 462.193 213.007 462.445 213.446C462.697 213.875 462.823 214.375 462.823 214.944C462.823 215.355 462.771 215.723 462.669 216.05C462.575 216.367 462.412 216.689 462.179 217.016C461.945 217.333 461.623 217.707 461.213 218.136L458.441 221.006L456.369 221.048ZM456.369 222V221.048L457.755 220.558H463.019V222H456.369ZM463.677 222.56L467.597 211.64H469.039L465.119 222.56H463.677ZM469.491 222V215.28H471.031V222H469.491ZM473.957 222V217.996C473.957 217.548 473.817 217.203 473.537 216.96C473.257 216.708 472.911 216.582 472.501 216.582C472.221 216.582 471.969 216.638 471.745 216.75C471.53 216.862 471.357 217.025 471.227 217.24C471.096 217.445 471.031 217.697 471.031 217.996L470.429 217.66C470.429 217.147 470.541 216.703 470.765 216.33C470.989 215.957 471.292 215.667 471.675 215.462C472.057 215.247 472.487 215.14 472.963 215.14C473.439 215.14 473.868 215.243 474.251 215.448C474.633 215.653 474.937 215.943 475.161 216.316C475.385 216.689 475.497 217.137 475.497 217.66V222H473.957ZM478.423 222V217.996C478.423 217.548 478.283 217.203 478.003 216.96C477.723 216.708 477.377 216.582 476.967 216.582C476.696 216.582 476.449 216.638 476.225 216.75C476.001 216.862 475.823 217.025 475.693 217.24C475.562 217.445 475.497 217.697 475.497 217.996L474.629 217.66C474.675 217.147 474.825 216.703 475.077 216.33C475.329 215.957 475.651 215.667 476.043 215.462C476.444 215.247 476.883 215.14 477.359 215.14C477.844 215.14 478.283 215.243 478.675 215.448C479.067 215.653 479.379 215.943 479.613 216.316C479.846 216.689 479.963 217.137 479.963 217.66V222H478.423ZM484.629 222.14C483.976 222.14 483.383 221.986 482.851 221.678C482.319 221.361 481.895 220.936 481.577 220.404C481.269 219.872 481.115 219.279 481.115 218.626C481.115 217.973 481.269 217.385 481.577 216.862C481.895 216.339 482.319 215.924 482.851 215.616C483.383 215.299 483.976 215.14 484.629 215.14C485.292 215.14 485.889 215.294 486.421 215.602C486.953 215.91 487.373 216.33 487.681 216.862C487.999 217.385 488.157 217.973 488.157 218.626C488.157 219.279 487.999 219.872 487.681 220.404C487.373 220.936 486.953 221.361 486.421 221.678C485.889 221.986 485.292 222.14 484.629 222.14ZM484.629 220.656C485.012 220.656 485.348 220.572 485.637 220.404C485.936 220.227 486.165 219.984 486.323 219.676C486.491 219.368 486.575 219.018 486.575 218.626C486.575 218.234 486.491 217.889 486.323 217.59C486.155 217.291 485.927 217.058 485.637 216.89C485.348 216.713 485.012 216.624 484.629 216.624C484.256 216.624 483.92 216.713 483.621 216.89C483.332 217.058 483.103 217.291 482.935 217.59C482.777 217.889 482.697 218.234 482.697 218.626C482.697 219.018 482.777 219.368 482.935 219.676C483.103 219.984 483.332 220.227 483.621 220.404C483.92 220.572 484.256 220.656 484.629 220.656Z" fill="#BAC0CC"/>
<path d="M64.1158 176.266H72.2471V201.711H64.254L56.1313 189.757V201.711H48V176.266H56.5791L64.1158 187.332V176.266Z" fill="#00D7FF"/>
<path d="M101.377 188.987C101.374 185.72 100.054 182.574 97.6803 180.175C95.3068 177.776 92.0536 176.3 88.5683 176.041C85.0829 175.782 81.6209 176.759 78.8714 178.777C76.1218 180.795 74.2862 183.706 73.73 186.932C73.1737 190.157 73.9376 193.46 75.8695 196.183C77.8015 198.906 80.7599 200.85 84.1559 201.627C87.5519 202.404 91.1366 201.958 94.1964 200.377C97.2563 198.796 99.567 196.197 100.669 193.096H91.9321C91.4914 193.74 90.8954 194.28 90.1919 194.67C89.3431 195.088 88.3903 195.287 87.4318 195.247C86.2431 195.273 85.0742 194.959 84.0826 194.346C83.1093 193.706 82.3854 192.787 82.0204 191.729H101.069C101.274 190.827 101.377 189.908 101.377 188.987ZM82.3937 185.669C82.8714 184.824 83.5842 184.115 84.457 183.617C85.3886 183.102 86.4563 182.842 87.5384 182.866C88.596 182.846 89.6404 183.088 90.5657 183.567C91.4568 184.051 92.1604 184.787 92.5754 185.669H82.3937Z" fill="#00D7FF"/>
<path d="M114.334 176.266L110.489 181.924L106.643 176.266H97.0107L105.672 189.012L97.0418 201.711H106.674L110.489 196.099L114.303 201.711H123.935L115.304 189.012L118.803 183.864H127.074V201.711H135.537V183.864H144V176.266H114.334Z" fill="#00D7FF"/>
</g>
<g filter="url(#filter3_d_1516_8585)">
<rect x="23.5" y="33.5" width="489" height="97" rx="7.5" fill="white"/>
<rect x="23.5" y="33.5" width="489" height="97" rx="7.5" stroke="#E3E6EA"/>
<path d="M377.737 84.286C376.316 84.286 375.077 84.0433 374.019 83.558C372.962 83.0553 372 82.3013 371.133 81.296L373.707 78.67C374.279 79.3633 374.912 79.9093 375.605 80.308C376.299 80.6893 377.096 80.88 377.997 80.88C378.847 80.88 379.505 80.724 379.973 80.412C380.441 80.0827 380.675 79.6233 380.675 79.034C380.675 78.5313 380.519 78.124 380.207 77.812C379.913 77.5 379.514 77.2313 379.011 77.006C378.509 76.7807 377.954 76.564 377.347 76.356C376.741 76.148 376.134 75.914 375.527 75.654C374.938 75.3767 374.392 75.0387 373.889 74.64C373.387 74.224 372.979 73.7127 372.667 73.106C372.355 72.482 372.199 71.702 372.199 70.766C372.199 69.6393 372.468 68.6687 373.005 67.854C373.56 67.0393 374.314 66.424 375.267 66.008C376.221 65.5747 377.313 65.358 378.543 65.358C379.739 65.358 380.857 65.5833 381.897 66.034C382.937 66.4847 383.787 67.1 384.445 67.88L381.871 70.506C381.334 69.934 380.788 69.5007 380.233 69.206C379.696 68.894 379.107 68.738 378.465 68.738C377.72 68.738 377.139 68.8767 376.723 69.154C376.307 69.4313 376.099 69.8387 376.099 70.376C376.099 70.844 376.255 71.2253 376.567 71.52C376.879 71.7973 377.287 72.04 377.789 72.248C378.309 72.456 378.864 72.664 379.453 72.872C380.06 73.08 380.667 73.3227 381.273 73.6C381.88 73.8773 382.435 74.2327 382.937 74.666C383.457 75.082 383.873 75.6193 384.185 76.278C384.497 76.9193 384.653 77.7167 384.653 78.67C384.653 80.4207 384.038 81.7987 382.807 82.804C381.594 83.792 379.904 84.286 377.737 84.286ZM376.879 82.258H379.739V86.626H376.879V82.258ZM379.739 67.23H376.879V63.018H379.739V67.23ZM386.487 81.712L393.533 74.432C393.967 73.9987 394.313 73.6 394.573 73.236C394.833 72.872 395.024 72.534 395.145 72.222C395.267 71.8927 395.327 71.5633 395.327 71.234C395.327 70.5233 395.093 69.9687 394.625 69.57C394.175 69.154 393.577 68.946 392.831 68.946C392.103 68.946 391.445 69.1453 390.855 69.544C390.283 69.9253 389.729 70.558 389.191 71.442L386.461 69.076C387.189 67.8453 388.117 66.918 389.243 66.294C390.37 65.67 391.661 65.358 393.117 65.358C394.383 65.358 395.475 65.592 396.393 66.06C397.329 66.528 398.049 67.1953 398.551 68.062C399.071 68.9287 399.331 69.9427 399.331 71.104C399.331 71.832 399.236 72.508 399.045 73.132C398.855 73.7387 398.543 74.3453 398.109 74.952C397.693 75.5413 397.13 76.1913 396.419 76.902L391.531 81.764L386.487 81.712ZM386.487 84V81.712L389.945 80.516H399.695V84H386.487ZM401.943 87.12L403.841 83.584L405.011 83.246C404.89 83.506 404.742 83.7227 404.569 83.896C404.396 84.052 404.196 84.13 403.971 84.13C403.468 84.13 403.009 83.922 402.593 83.506C402.177 83.09 401.969 82.57 401.969 81.946C401.969 81.27 402.194 80.6893 402.645 80.204C403.113 79.7187 403.685 79.476 404.361 79.476C405.002 79.476 405.557 79.7187 406.025 80.204C406.51 80.672 406.753 81.2527 406.753 81.946C406.753 82.2233 406.701 82.544 406.597 82.908C406.493 83.272 406.285 83.7487 405.973 84.338L403.867 88.186L401.943 87.12ZM416.079 84.286C414.605 84.286 413.271 83.8873 412.075 83.09C410.879 82.2927 409.934 81.1833 409.241 79.762C408.565 78.3233 408.227 76.668 408.227 74.796C408.227 72.9067 408.565 71.26 409.241 69.856C409.917 68.4347 410.844 67.334 412.023 66.554C413.201 65.7567 414.536 65.358 416.027 65.358C417.535 65.358 418.878 65.7567 420.057 66.554C421.235 67.334 422.163 68.4347 422.839 69.856C423.532 71.2773 423.879 72.9327 423.879 74.822C423.879 76.7113 423.532 78.3667 422.839 79.788C422.163 81.2093 421.235 82.3187 420.057 83.116C418.895 83.896 417.569 84.286 416.079 84.286ZM416.053 80.672C416.815 80.672 417.474 80.4553 418.029 80.022C418.583 79.5713 419.008 78.9127 419.303 78.046C419.615 77.162 419.771 76.0873 419.771 74.822C419.771 73.5393 419.615 72.4647 419.303 71.598C419.008 70.7313 418.583 70.0813 418.029 69.648C417.474 69.1973 416.807 68.972 416.027 68.972C415.281 68.972 414.623 69.1887 414.051 69.622C413.496 70.0553 413.071 70.7053 412.777 71.572C412.482 72.4387 412.335 73.5133 412.335 74.796C412.335 76.0787 412.482 77.1533 412.777 78.02C413.071 78.8867 413.496 79.5453 414.051 79.996C414.623 80.4467 415.29 80.672 416.053 80.672ZM431.315 84.286C430.05 84.286 428.862 84.0693 427.753 83.636C426.661 83.1853 425.751 82.544 425.023 81.712L427.675 79.086C428.004 79.5713 428.481 79.97 429.105 80.282C429.746 80.5767 430.44 80.724 431.185 80.724C431.844 80.724 432.416 80.6113 432.901 80.386C433.386 80.1433 433.768 79.8053 434.045 79.372C434.322 78.9213 434.461 78.4013 434.461 77.812C434.461 77.2053 434.322 76.6853 434.045 76.252C433.768 75.8187 433.378 75.4893 432.875 75.264C432.39 75.0213 431.835 74.9 431.211 74.9C430.587 74.9 430.015 74.9867 429.495 75.16C428.975 75.316 428.498 75.5587 428.065 75.888L428.403 73.288C428.802 72.976 429.183 72.7247 429.547 72.534C429.911 72.326 430.31 72.17 430.743 72.066C431.176 71.962 431.688 71.91 432.277 71.91C433.629 71.91 434.764 72.1873 435.683 72.742C436.619 73.2967 437.321 74.0333 437.789 74.952C438.274 75.8707 438.517 76.8847 438.517 77.994C438.517 79.2073 438.214 80.2907 437.607 81.244C437.018 82.1973 436.186 82.9427 435.111 83.48C434.036 84.0173 432.771 84.286 431.315 84.286ZM428.065 75.888L426.297 74.25L427.181 65.644H430.873L429.911 74.172L428.065 75.888ZM427.727 69.102L427.181 65.644H437.503V69.102H427.727ZM446.722 84.286C445.439 84.286 444.278 84 443.238 83.428C442.215 82.856 441.4 82.0933 440.794 81.14C440.204 80.1693 439.91 79.086 439.91 77.89C439.91 76.33 440.456 74.7527 441.548 73.158L446.722 65.644H451.324L445.578 73.652L444.044 73.782C444.286 73.366 444.538 73.0107 444.798 72.716C445.075 72.404 445.422 72.17 445.838 72.014C446.254 71.8407 446.782 71.754 447.424 71.754C448.568 71.754 449.59 72.0227 450.492 72.56C451.41 73.08 452.147 73.7993 452.702 74.718C453.256 75.6193 453.534 76.6593 453.534 77.838C453.534 79.034 453.23 80.126 452.624 81.114C452.017 82.0847 451.202 82.856 450.18 83.428C449.157 84 448.004 84.286 446.722 84.286ZM446.722 80.724C447.259 80.724 447.744 80.594 448.178 80.334C448.611 80.074 448.949 79.7187 449.192 79.268C449.434 78.8173 449.556 78.3147 449.556 77.76C449.556 77.188 449.434 76.6853 449.192 76.252C448.949 75.8013 448.611 75.4547 448.178 75.212C447.744 74.952 447.259 74.822 446.722 74.822C446.167 74.822 445.673 74.952 445.24 75.212C444.824 75.4547 444.494 75.8013 444.252 76.252C444.009 76.6853 443.888 77.188 443.888 77.76C443.888 78.3147 444.009 78.8173 444.252 79.268C444.494 79.7187 444.824 80.074 445.24 80.334C445.673 80.594 446.167 80.724 446.722 80.724ZM458.064 84.286C457.388 84.286 456.825 84.052 456.374 83.584C455.923 83.116 455.698 82.5527 455.698 81.894C455.698 81.2007 455.923 80.6287 456.374 80.178C456.825 79.71 457.388 79.476 458.064 79.476C458.757 79.476 459.321 79.71 459.754 80.178C460.205 80.6287 460.43 81.2007 460.43 81.894C460.43 82.5527 460.205 83.116 459.754 83.584C459.321 84.052 458.757 84.286 458.064 84.286ZM463.701 84L469.473 75.966L470.981 75.862C470.756 76.2607 470.505 76.616 470.227 76.928C469.967 77.2227 469.629 77.4567 469.213 77.63C468.815 77.786 468.277 77.864 467.601 77.864C466.492 77.864 465.469 77.604 464.533 77.084C463.615 76.5467 462.878 75.8273 462.323 74.926C461.786 74.0073 461.517 72.9673 461.517 71.806C461.517 70.5927 461.821 69.5007 462.427 68.53C463.034 67.5593 463.849 66.788 464.871 66.216C465.894 65.644 467.047 65.358 468.329 65.358C469.612 65.358 470.765 65.644 471.787 66.216C472.81 66.7707 473.616 67.5333 474.205 68.504C474.812 69.4573 475.115 70.5407 475.115 71.754C475.115 73.314 474.578 74.8827 473.503 76.46L468.329 84H463.701ZM468.329 74.822C468.867 74.822 469.352 74.692 469.785 74.432C470.219 74.172 470.557 73.8253 470.799 73.392C471.042 72.9413 471.163 72.4387 471.163 71.884C471.163 71.312 471.042 70.8007 470.799 70.35C470.557 69.8993 470.219 69.5527 469.785 69.31C469.352 69.05 468.867 68.92 468.329 68.92C467.775 68.92 467.281 69.05 466.847 69.31C466.431 69.5527 466.093 69.8993 465.833 70.35C465.591 70.8007 465.469 71.312 465.469 71.884C465.469 72.4387 465.591 72.9413 465.833 73.392C466.093 73.8253 466.44 74.172 466.873 74.432C467.307 74.692 467.792 74.822 468.329 74.822ZM478.253 84L484.493 67.932H488.471L482.465 84H478.253ZM475.809 69.102V65.644H488.471V67.932L487.119 69.102H475.809Z" fill="#19213D"/>
<path d="M453.324 107V97.2H454.906V107H453.324ZM451.364 98.642V97.2H454.766V98.642H451.364ZM456.369 106.048L459.981 102.212C460.279 101.895 460.522 101.61 460.709 101.358C460.895 101.106 461.031 100.868 461.115 100.644C461.199 100.42 461.241 100.191 461.241 99.958C461.241 99.5193 461.096 99.1787 460.807 98.936C460.527 98.684 460.167 98.558 459.729 98.558C459.262 98.558 458.851 98.6747 458.497 98.908C458.142 99.1413 457.825 99.5053 457.545 100L456.425 99.076C456.807 98.4133 457.279 97.914 457.839 97.578C458.399 97.2327 459.047 97.06 459.785 97.06C460.391 97.06 460.923 97.1813 461.381 97.424C461.838 97.6667 462.193 98.0073 462.445 98.446C462.697 98.8753 462.823 99.3747 462.823 99.944C462.823 100.355 462.771 100.723 462.669 101.05C462.575 101.367 462.412 101.689 462.179 102.016C461.945 102.333 461.623 102.707 461.213 103.136L458.441 106.006L456.369 106.048ZM456.369 107V106.048L457.755 105.558H463.019V107H456.369ZM463.677 107.56L467.597 96.64H469.039L465.119 107.56H463.677ZM469.491 107V100.28H471.031V107H469.491ZM473.957 107V102.996C473.957 102.548 473.817 102.203 473.537 101.96C473.257 101.708 472.911 101.582 472.501 101.582C472.221 101.582 471.969 101.638 471.745 101.75C471.53 101.862 471.357 102.025 471.227 102.24C471.096 102.445 471.031 102.697 471.031 102.996L470.429 102.66C470.429 102.147 470.541 101.703 470.765 101.33C470.989 100.957 471.292 100.667 471.675 100.462C472.057 100.247 472.487 100.14 472.963 100.14C473.439 100.14 473.868 100.243 474.251 100.448C474.633 100.653 474.937 100.943 475.161 101.316C475.385 101.689 475.497 102.137 475.497 102.66V107H473.957ZM478.423 107V102.996C478.423 102.548 478.283 102.203 478.003 101.96C477.723 101.708 477.377 101.582 476.967 101.582C476.696 101.582 476.449 101.638 476.225 101.75C476.001 101.862 475.823 102.025 475.693 102.24C475.562 102.445 475.497 102.697 475.497 102.996L474.629 102.66C474.675 102.147 474.825 101.703 475.077 101.33C475.329 100.957 475.651 100.667 476.043 100.462C476.444 100.247 476.883 100.14 477.359 100.14C477.844 100.14 478.283 100.243 478.675 100.448C479.067 100.653 479.379 100.943 479.613 101.316C479.846 101.689 479.963 102.137 479.963 102.66V107H478.423ZM484.629 107.14C483.976 107.14 483.383 106.986 482.851 106.678C482.319 106.361 481.895 105.936 481.577 105.404C481.269 104.872 481.115 104.279 481.115 103.626C481.115 102.973 481.269 102.385 481.577 101.862C481.895 101.339 482.319 100.924 482.851 100.616C483.383 100.299 483.976 100.14 484.629 100.14C485.292 100.14 485.889 100.294 486.421 100.602C486.953 100.91 487.373 101.33 487.681 101.862C487.999 102.385 488.157 102.973 488.157 103.626C488.157 104.279 487.999 104.872 487.681 105.404C487.373 105.936 486.953 106.361 486.421 106.678C485.889 106.986 485.292 107.14 484.629 107.14ZM484.629 105.656C485.012 105.656 485.348 105.572 485.637 105.404C485.936 105.227 486.165 104.984 486.323 104.676C486.491 104.368 486.575 104.018 486.575 103.626C486.575 103.234 486.491 102.889 486.323 102.59C486.155 102.291 485.927 102.058 485.637 101.89C485.348 101.713 485.012 101.624 484.629 101.624C484.256 101.624 483.92 101.713 483.621 101.89C483.332 102.058 483.103 102.291 482.935 102.59C482.777 102.889 482.697 103.234 482.697 103.626C482.697 104.018 482.777 104.368 482.935 104.676C483.103 104.984 483.332 105.227 483.621 105.404C483.92 105.572 484.256 105.656 484.629 105.656Z" fill="#BAC0CC"/>
</g>
<path d="M48 310.851C48 303.69 51.1313 302.001 56.3931 302.001H65.1812C71.8113 302.001 72.7318 305.073 72.7318 309.837V310.615H66.995C66.995 308.183 65.916 307.879 64.0493 307.879H57.7086C54.7611 307.879 53.9987 308.79 53.9987 312.979V316.019C53.9987 320.21 54.7611 321.121 57.7086 321.121H63.9438C65.4704 321.121 66.995 320.818 66.995 318.453V317.743H59.7336V312.676H72.8373V319.636C72.8373 326.661 69.9954 327 63.4181 327H56.3932C51.1313 327 48.0001 325.311 48.0001 318.15L48 310.851ZM74.2837 302.27H95.1201V307.945H80.1242V311.865H94.3324V316.933H80.1242V320.851H95.4621V326.73H74.2837V302.27ZM97.23 302.269H103.072V326.729H97.2298L97.23 302.269ZM104.836 310.851C104.836 303.69 107.967 302.001 113.229 302.001H120.095C128.408 302.001 129.489 304.297 129.435 311.222H123.594V310.547C123.594 308.79 122.595 308.283 120.858 308.283H114.492C111.413 308.283 110.834 310.143 110.834 313.183V315.818C110.834 319.365 111.413 320.718 114.177 320.718H120.412C123.043 320.718 123.831 320.379 123.831 317.337H129.671V319.636C129.671 323.757 128.514 327 122.646 327H113.229C107.967 327 104.836 325.311 104.836 318.15V310.851ZM136.697 315.818C136.697 319.364 137.276 320.717 140.04 320.717H147.51C150.272 320.717 150.851 319.364 150.851 315.818V313.182C150.851 310.142 150.272 308.283 147.196 308.283H140.354C137.276 308.283 136.697 310.142 136.697 313.182L136.697 315.818ZM130.698 310.85C130.698 303.689 133.83 302 139.092 302H148.456C153.72 302 156.851 303.689 156.851 310.85V318.149C156.851 325.31 153.72 326.999 148.456 326.999H139.092C133.83 326.999 130.699 325.31 130.699 318.149L130.698 310.85ZM159.071 323.949C159.366 323.949 159.825 324.012 159.825 323.46C159.825 323.043 159.538 322.993 159.278 322.993H158.676V323.949H159.071ZM160.058 325.458H159.753L159.149 324.21H158.676V325.458H158.418V322.749H159.339C159.514 322.749 159.692 322.764 159.851 322.882C160.007 322.998 160.087 323.239 160.087 323.467C160.087 323.999 159.796 324.198 159.421 324.21L160.058 325.458ZM160.773 324.1C160.773 322.927 160.032 321.979 159.12 321.979C158.201 321.979 157.462 322.927 157.462 324.1C157.462 325.287 158.201 326.236 159.12 326.236C160.033 326.236 160.773 325.287 160.773 324.1ZM157.229 324.1C157.229 322.769 158.074 321.685 159.12 321.685C160.16 321.685 161 322.769 161 324.1C161 325.442 160.16 326.529 159.12 326.529C158.074 326.529 157.229 325.442 157.229 324.1Z" fill="#104293"/>
<path d="M160.651 78.2086H147.851V74.2515H160.651V78.2086ZM147.851 67.7117H160.651V71.5828H147.851V67.7117ZM159.693 80.9172C161.976 80.9172 163 79.7117 163 77.6043V75.7546C163 75.1534 162.835 74.8957 162.505 74.5491L161.05 72.9141L162.505 71.2791C162.835 70.9356 163 70.635 163 70.0736V68.4387C163 66.3313 161.941 65.1258 159.693 65.1258H145.535V81H159.691V80.9172H159.693ZM135.913 78.2086H123.113V74.2515H135.913V78.2086ZM123.111 67.7117H135.91V71.5828H123.111V67.7117ZM134.953 80.9172C137.236 80.9172 138.259 79.7117 138.259 77.6043V75.7546C138.259 75.1534 138.094 74.8957 137.764 74.5491L136.309 72.9141L137.764 71.2791C138.094 70.9356 138.259 70.635 138.259 70.0736V68.4387C138.259 66.3313 137.2 65.1258 134.953 65.1258H120.797V81H134.953V80.9172ZM110.578 65.046V78.0798H98.4717V65.046H96.1557V77.2638C96.1557 79.5 97.2146 80.8773 99.2642 80.8773H109.748C111.83 80.8773 112.856 79.5 112.856 77.2638V65.0031H110.573V65.046H110.578ZM73.6321 71.4969V65H71.316V80.8742H73.6321V74.2914H85.9033V80.8742H88.2193V65H85.9033V71.4969H73.6321ZM64.6368 67.8834V65.0429H51.1085C49.0259 65.0429 48 66.4202 48 68.6564V77.2607C48 79.4969 49.059 80.8742 51.1085 80.8742H64.6038V78.0337H50.3491V67.8374H64.6368V67.8834Z" fill="black"/>
<defs>
<filter id="filter0_d_1516_8585" x="0" y="0" width="548" height="402" filterUnits="userSpaceOnUse" color-interpolation-filters="sRGB">
<feFlood flood-opacity="0" result="BackgroundImageFix"/>
<feColorMatrix in="SourceAlpha" type="matrix" values="0 0 0 0 0 0 0 0 0 0 0 0 0 0 0 0 0 0 127 0" result="hardAlpha"/>
<feOffset dy="2"/>
<feGaussianBlur stdDeviation="2"/>
<feComposite in2="hardAlpha" operator="out"/>
<feColorMatrix type="matrix" values="0 0 0 0 0.0980392 0 0 0 0 0.129412 0 0 0 0 0.239216 0 0 0 0.08 0"/>
<feBlend mode="normal" in2="BackgroundImageFix" result="effect1_dropShadow_1516_8585"/>
<feBlend mode="normal" in="SourceGraphic" in2="effect1_dropShadow_1516_8585" result="shape"/>
</filter>
<filter id="filter1_d_1516_8585" x="19" y="263" width="498" height="106" filterUnits="userSpaceOnUse" color-interpolation-filters="sRGB">
<feFlood flood-opacity="0" result="BackgroundImageFix"/>
<feColorMatrix in="SourceAlpha" type="matrix" values="0 0 0 0 0 0 0 0 0 0 0 0 0 0 0 0 0 0 127 0" result="hardAlpha"/>
<feOffset dy="2"/>
<feGaussianBlur stdDeviation="2"/>
<feComposite in2="hardAlpha" operator="out"/>
<feColorMatrix type="matrix" values="0 0 0 0 0 0 0 0 0 0 0 0 0 0 0 0 0 0 0.08 0"/>
<feBlend mode="normal" in2="BackgroundImageFix" result="effect1_dropShadow_1516_8585"/>
<feBlend mode="normal" in="SourceGraphic" in2="effect1_dropShadow_1516_8585" result="shape"/>
</filter>
<filter id="filter2_d_1516_8585" x="19" y="146" width="498" height="106" filterUnits="userSpaceOnUse" color-interpolation-filters="sRGB">
<feFlood flood-opacity="0" result="BackgroundImageFix"/>
<feColorMatrix in="SourceAlpha" type="matrix" values="0 0 0 0 0 0 0 0 0 0 0 0 0 0 0 0 0 0 127 0" result="hardAlpha"/>
<feOffset dy="2"/>
<feGaussianBlur stdDeviation="2"/>
<feComposite in2="hardAlpha" operator="out"/>
<feColorMatrix type="matrix" values="0 0 0 0 0 0 0 0 0 0 0 0 0 0 0 0 0 0 0.08 0"/>
<feBlend mode="normal" in2="BackgroundImageFix" result="effect1_dropShadow_1516_8585"/>
<feBlend mode="normal" in="SourceGraphic" in2="effect1_dropShadow_1516_8585" result="shape"/>
</filter>
<filter id="filter3_d_1516_8585" x="19" y="31" width="498" height="106" filterUnits="userSpaceOnUse" color-interpolation-filters="sRGB">
<feFlood flood-opacity="0" result="BackgroundImageFix"/>
<feColorMatrix in="SourceAlpha" type="matrix" values="0 0 0 0 0 0 0 0 0 0 0 0 0 0 0 0 0 0 127 0" result="hardAlpha"/>
<feOffset dy="2"/>
<feGaussianBlur stdDeviation="2"/>
<feComposite in2="hardAlpha" operator="out"/>
<feColorMatrix type="matrix" values="0 0 0 0 0 0 0 0 0 0 0 0 0 0 0 0 0 0 0.08 0"/>
<feBlend mode="normal" in2="BackgroundImageFix" result="effect1_dropShadow_1516_8585"/>
<feBlend mode="normal" in="SourceGraphic" in2="effect1_dropShadow_1516_8585" result="shape"/>
</filter>
<clipPath id="clip0_1516_8585">
<path d="M4 18C4 9.16344 11.1634 2 20 2H528C536.837 2 544 9.16344 544 18V380C544 388.837 536.837 396 528 396H20C11.1635 396 4 388.837 4 380V18Z" fill="white"/>
</clipPath>
</defs>
</svg>
