<svg width="671" height="419" viewBox="0 0 671 419" fill="none" xmlns="http://www.w3.org/2000/svg">
<path fill-rule="evenodd" clip-rule="evenodd" d="M214.251 1.54519C195.125 6.69519 177.248 23.7522 153.506 59.5002C135.83 86.1152 120.823 115.16 105.667 152.09C100.034 165.818 91.414 190.849 89.513 199C88.551 203.125 87.139 207.502 86.375 208.726C83.18 213.845 43.587 237.928 17.352 250.712C4.74901 256.853 2.00001 258.586 0.989014 261.027C-1.68399 267.479 3.04502 274 10.396 274C13.985 274 17.847 272.509 29.692 266.552C44.035 259.337 67.225 245.95 78.16 238.571L83.5 234.968L84.76 243.234C86.279 253.205 91.199 263.893 96.689 269.149C103.402 275.576 110.128 278.342 120.215 278.825C125.082 279.057 131.833 278.703 135.217 278.037C152.901 274.558 178.076 258.653 200.794 236.608L207.088 230.5L206.437 234.624C205.561 240.164 208.223 249.045 212.073 253.431C216.191 258.121 222.542 260.43 229.381 259.724C238.383 258.795 245.272 254.508 259.408 241.036C263.758 236.891 266.99 234.4 266.591 235.5C266.192 236.6 265.308 239.975 264.627 243C262.649 251.783 264.373 256.332 270.473 258.429C277.567 260.869 280.722 258.645 290.939 244C313.886 211.11 340.039 182 346.641 182C349.929 182 349.799 183.166 343.973 205.802C341.208 216.545 338.503 228.456 337.962 232.27C336.368 243.507 339.41 251.128 347.044 255.023C356.57 259.882 368.014 256.078 381.662 243.514C386.152 239.381 390.05 236 390.324 236C390.599 236 391.132 237.822 391.508 240.048C393.07 249.291 402.909 257.266 412.906 257.392C419.423 257.474 423.369 256.06 431.127 250.863C439.718 245.107 456.637 226.987 462.97 216.758C464.639 214.064 464.66 214.154 464.211 221.912C463.034 242.247 472.338 256 487.272 256C494.03 256 501.131 251.785 512.083 241.273L521.884 231.866L522.526 235.683C523.697 242.644 525.123 245.969 528.298 249.144C534.454 255.3 543.422 256.693 553.212 253.013C560.431 250.3 574.265 239.682 583.419 229.828C587.588 225.34 591 222.013 591 222.434C591 223.563 585.089 244.045 583.848 247.217C583.138 249.031 579.581 251.987 573.142 256.111C543.875 274.861 536.492 280.115 520.5 293.572C489.765 319.435 468.052 348.684 462.489 371.717C460.182 381.267 460.772 393.534 463.873 400.5C469.798 413.809 484.443 421.115 499.25 418.147C507.85 416.424 518.345 411.298 525.5 405.326C554.855 380.826 576.345 342.642 598.543 275.54C601.711 265.966 603.214 262.874 606.081 260.04C608.051 258.093 618.176 251.577 628.581 245.561C652.501 231.729 666.648 222.466 668.749 219.261C671.254 215.438 670.704 210.002 667.537 207.278C663.082 203.446 659.516 204.226 647.379 211.687C623.925 226.104 610.614 233.947 610.238 233.572C610.022 233.356 610.759 229.876 611.875 225.839C617.401 205.86 628 162.001 628 159.118C628 154.267 623.392 150 618.154 150C612.062 150 609.057 153.183 604.66 164.293C597.46 182.483 582.642 204.729 568.612 218.41C554.559 232.114 543.909 237.471 542.431 231.582C541.058 226.109 546.616 208.242 558.091 181.244C561.891 172.303 565 163.606 565 161.917C565 157.302 560.278 153 555.212 153C549.874 153 546.793 155.665 543.363 163.247C536.81 177.735 523.287 201.394 520.069 204C519.73 204.275 517.134 207.425 514.301 211C509.04 217.639 498.793 227.962 493.615 231.84C489.903 234.619 486.401 234.618 484.913 231.838C483.194 228.626 484.362 210.179 486.959 199.5C493.017 174.601 506.124 137.903 529.999 79.0002C556.165 14.4452 556.253 14.1622 551.586 9.49518C547.398 5.30718 541.651 5.00619 537.105 8.73719C535.924 9.70719 533.671 13.6502 532.098 17.5002C530.526 21.3502 522.493 40.7002 514.248 60.5002C500.285 94.0342 483.987 134.008 477.501 150.633L474.718 157.765L469.162 155.308C458.184 150.453 446.055 151.272 434.408 157.653C426.838 161.802 413.508 175.989 404.5 189.487C395.051 203.644 387.567 213.139 378.988 221.85C371.323 229.633 361.482 237 358.751 237C356.914 237 356.777 236.55 357.312 232.25C357.636 229.637 360.268 219.4 363.16 209.5C367.948 193.11 368.423 190.59 368.459 181.323C368.494 172.566 368.212 170.762 366.438 168.385C362.62 163.271 359.412 161.621 352.425 161.176C346.478 160.797 345.198 161.092 338.571 164.368C329.617 168.793 320.143 177.383 307.895 192.18C302.902 198.214 298.597 202.93 298.329 202.662C297.903 202.237 302.263 189.041 306.566 177.73C308.068 173.781 308.434 168.295 307.379 165.545C306.601 163.517 301.843 160.999 298.8 161.004C294.51 161.011 290.342 164.516 288.502 169.665C284.581 180.638 277.85 193.104 270.593 202.833C253.045 226.359 232.765 243.37 227.487 238.989C223.294 235.509 228.391 217.484 242.175 187.044C250.822 167.948 251.159 166.325 247.359 162.088C245.08 159.549 243.646 158.869 240.289 158.74C234.495 158.517 232.372 160.782 224.937 175.122C211.197 201.622 187.405 227.728 161.215 245.043C127.367 267.421 104.685 263.391 104.685 235C104.685 226.579 106.49 220.33 109.858 217.092C111.341 215.666 118.793 209.605 126.418 203.623C160.338 177.01 185.368 151.956 206.944 123.017C227.743 95.1202 242.05 67.6542 247.473 45.2102C250.033 34.6182 249.286 21.2872 245.747 14.4102C242.355 7.81619 237.315 3.46819 230.833 1.54319C224.569 -0.316812 221.165 -0.316813 214.251 1.54519ZM227.023 23.7562C229.648 27.0932 229.615 34.3222 226.93 44.0092C218.337 75.0192 190.299 116.661 152.504 154.544C138.12 168.962 115.148 189.481 114.319 188.652C113.947 188.281 116.37 180.736 120.789 168.5C134.505 130.523 162.034 79.6162 184.87 50.0002C197.568 33.5322 208.145 23.9272 216.2 21.5492C221.477 19.9912 224.554 20.6182 227.023 23.7562ZM254.071 112.716C246.11 116.858 243.869 126.122 249.425 131.922C257.38 140.225 270.5 134.528 270.5 122.769C270.5 118.835 269.995 117.541 267.5 115.087C263.6 111.249 258.592 110.365 254.071 112.716ZM460.905 173.872C465.678 175.208 465.616 177.119 460.526 185.586C446.206 209.406 429.552 230.405 420.591 235.944C416.861 238.249 413.001 238.601 411.2 236.8C407.612 233.212 412.151 216.332 420.57 201.96C426.514 191.812 439.619 177.98 446.056 175.06C450.476 173.055 456.314 172.588 460.905 173.872ZM570.019 290.75C558.283 322.335 551.19 338.126 540.865 355.659C533.392 368.348 528.754 374.424 519.549 383.583C491.68 411.311 469.989 397.828 487.24 363.5C490.132 357.745 498.583 344.041 499.881 343C500.224 342.725 503.05 339.35 506.161 335.5C512.906 327.154 531.716 308.731 541.5 300.887C549.646 294.356 572.864 278 573.989 278C574.411 278 572.624 283.738 570.019 290.75Z" fill="black"/>
</svg>
