<svg width="291" height="143" viewBox="0 0 291 143" fill="none" xmlns="http://www.w3.org/2000/svg">
<ellipse cx="75.9243" cy="62.1511" rx="5.14011" ry="4.86206" fill="#333333"/>
<ellipse cx="75.9243" cy="97.157" rx="5.14011" ry="4.86206" fill="#333333"/>
<path d="M76.1142 22.0475C76.1142 22.0475 35.6655 10.5156 36.9157 25.2334C38.1659 39.9512 38.0522 51.473 47.6279 50.5744C57.2036 49.6757 76.1142 22.0475 76.1142 22.0475Z" fill="#333333"/>
<path d="M69.2719 20.5506C77.2266 11.8314 93.4443 -3.92661 98.7406 5.66905C105.867 18.5816 112.357 28.0684 103.976 32.8797C98.0938 36.2531 81.0966 31.3665 71.5222 28.1656C69.4797 21.4446 71.2853 27.1751 69.2719 20.5506Z" fill="#333333"/>
<path d="M21.375 103.244C20.1667 103.452 19.0833 103.682 18.125 103.932C17.1667 104.223 15.9792 104.369 14.5625 104.369C13.0208 104.369 11.8333 103.932 11 103.057C10.1667 102.182 9.75 101.202 9.75 100.119C9.75 99.2441 9.89583 98.1191 10.1875 96.7441C10.4792 95.3275 10.625 93.9108 10.625 92.4941C10.3333 87.1191 9.9375 81.8066 9.4375 76.5566C8.97917 71.265 8.52083 66.4316 8.0625 62.0566C7.60417 57.6816 7.20833 53.9525 6.875 50.8691C6.54167 47.7441 6.375 45.6191 6.375 44.4941C6.375 43.7441 6.5625 43.0566 6.9375 42.4316C7.3125 41.765 7.83333 41.1816 8.5 40.6816C9.16667 40.1816 9.9375 39.8066 10.8125 39.5566C11.7292 39.265 12.6875 39.1191 13.6875 39.1191C15.6458 39.1191 17.0833 39.4316 18 40.0566C18.9167 40.64 19.4792 41.5983 19.6875 42.9316C20.8542 51.89 21.6875 60.1191 22.1875 67.6191C22.7292 75.0775 23.1042 82.0775 23.3125 88.6191C23.3125 89.5775 23.5625 90.3066 24.0625 90.8066C24.6042 91.3066 25.2917 91.5566 26.125 91.5566C27.7917 91.5566 29.4792 91.4733 31.1875 91.3066C32.8958 91.0983 34.6042 90.89 36.3125 90.6816C38.0208 90.4733 39.7083 90.2858 41.375 90.1191C43.0833 89.9108 44.7292 89.8066 46.3125 89.8066C47.3542 89.8066 48.1875 89.9316 48.8125 90.1816C49.4792 90.4316 49.9792 90.765 50.3125 91.1816C50.6875 91.5983 50.9167 92.0775 51 92.6191C51.125 93.1191 51.1875 93.6191 51.1875 94.1191C51.1875 94.9108 51.1042 95.7025 50.9375 96.4941C50.7708 97.2858 50.4792 98.015 50.0625 98.6816C49.6458 99.3066 49.0833 99.8275 48.375 100.244C47.6667 100.702 46.7708 100.973 45.6875 101.057C40.5625 101.557 35.875 101.932 31.625 102.182C27.4167 102.432 24 102.786 21.375 103.244ZM98.515 48.5566C98.515 47.9316 98.7858 47.3275 99.3275 46.7441C99.8692 46.1191 100.577 45.5775 101.452 45.1191C102.327 44.6191 103.307 44.2233 104.39 43.9316C105.515 43.5983 106.64 43.4316 107.765 43.4316C108.39 43.4316 108.911 43.5983 109.327 43.9316C109.786 44.265 110.182 44.9108 110.515 45.8691C110.848 46.7858 111.14 48.0983 111.39 49.8066C111.682 51.4733 111.952 53.6608 112.202 56.3691C112.369 57.2025 112.515 57.8483 112.64 58.3066C112.807 58.7233 113.015 58.9316 113.265 58.9316C113.64 58.9316 114.015 58.2858 114.39 56.9941C117.432 48.2025 121.827 43.8066 127.577 43.8066C130.244 43.8066 132.661 44.64 134.827 46.3066C137.036 47.9733 139.077 50.7025 140.952 54.4941C142.869 58.2441 144.682 63.2025 146.39 69.3691C148.098 75.4941 149.807 83.0566 151.515 92.0566C151.598 92.515 151.661 92.9316 151.702 93.3066C151.744 93.6816 151.765 94.0358 151.765 94.3691C151.765 95.3275 151.536 96.1608 151.077 96.8691C150.661 97.5358 150.098 98.0983 149.39 98.5566C148.682 98.9733 147.89 99.2858 147.015 99.4941C146.14 99.7441 145.265 99.8691 144.39 99.8691C142.64 99.8691 141.369 99.6816 140.577 99.3066C139.827 98.9316 139.348 98.2233 139.14 97.1816C137.932 90.8483 136.744 85.2233 135.577 80.3066C134.452 75.39 133.327 71.265 132.202 67.9316C131.119 64.5566 130.036 61.9941 128.952 60.2441C127.869 58.4941 126.786 57.6191 125.702 57.6191C124.619 57.6191 123.598 58.3066 122.64 59.6816C121.723 61.015 120.827 63.1191 119.952 65.9941C119.077 68.8691 118.223 72.515 117.39 76.9316C116.598 81.3483 115.827 86.6191 115.077 92.7441C114.869 94.4108 114.036 95.7441 112.577 96.7441C111.119 97.7441 109.265 98.2441 107.015 98.2441C105.515 98.2441 104.369 97.9316 103.577 97.3066C102.786 96.6816 102.348 95.8275 102.265 94.7441C101.89 86.0775 101.473 78.9525 101.015 73.3691C100.598 67.7441 100.202 63.2441 99.8275 59.8691C99.4525 56.4525 99.14 53.9108 98.89 52.2441C98.64 50.5775 98.515 49.3483 98.515 48.5566ZM193.74 53.3066C193.907 53.39 194.157 53.4316 194.49 53.4316C195.407 53.4316 195.865 52.8275 195.865 51.6191V32.1816C195.865 29.7233 196.407 27.9733 197.49 26.9316C198.615 25.89 200.469 25.3691 203.053 25.3691C205.678 25.3691 207.532 25.9108 208.615 26.9941C209.698 28.0775 210.24 29.9316 210.24 32.5566C210.24 33.5566 210.178 35.0358 210.053 36.9941C209.928 38.9108 209.782 41.0983 209.615 43.5566C209.49 46.015 209.365 48.6608 209.24 51.4941C209.115 54.2858 209.053 57.0566 209.053 59.8066C209.053 64.0566 209.344 67.7233 209.928 70.8066C210.511 73.89 211.344 76.4525 212.428 78.4941C213.511 80.4941 214.803 81.9941 216.303 82.9941C217.803 83.9525 219.49 84.4316 221.365 84.4316C222.407 84.4316 223.344 84.3066 224.178 84.0566C225.053 83.765 226.073 83.6191 227.24 83.6191C228.073 83.6191 228.761 84.0566 229.303 84.9316C229.886 85.765 230.178 86.7858 230.178 87.9941C230.178 89.0775 229.844 90.0983 229.178 91.0566C228.553 92.015 227.678 92.8483 226.553 93.5566C225.469 94.265 224.198 94.8275 222.74 95.2441C221.282 95.6191 219.761 95.8066 218.178 95.8066C214.761 95.8066 211.636 94.765 208.803 92.6816C205.969 90.5566 203.844 87.3275 202.428 82.9941C202.303 82.3275 202.094 81.9941 201.803 81.9941C201.469 81.9941 201.198 82.3275 200.99 82.9941C199.865 86.0358 198.386 88.7858 196.553 91.2441C194.761 93.6608 192.657 95.7441 190.24 97.4941C187.865 99.2025 185.24 100.515 182.365 101.432C179.532 102.348 176.532 102.807 173.365 102.807C170.032 102.807 166.969 102.244 164.178 101.119C161.428 100.036 159.053 98.515 157.053 96.5566C155.053 94.5566 153.49 92.2233 152.365 89.5566C151.24 86.8483 150.678 83.9316 150.678 80.8066C150.678 76.8066 151.511 73.0358 153.178 69.4941C154.844 65.9525 157.094 62.8691 159.928 60.2441C162.803 57.5775 166.136 55.4733 169.928 53.9316C173.719 52.39 177.761 51.6191 182.053 51.6191C183.803 51.6191 185.657 51.765 187.615 52.0566C189.573 52.3066 191.615 52.7233 193.74 53.3066ZM175.803 91.5566C178.178 91.5566 180.282 91.0358 182.115 89.9941C183.99 88.9525 185.636 87.64 187.053 86.0566C188.511 84.4316 189.74 82.6608 190.74 80.7441C191.74 78.7858 192.553 76.89 193.178 75.0566C193.803 73.2233 194.261 71.5775 194.553 70.1191C194.844 68.6608 194.99 67.6191 194.99 66.9941C194.99 66.5358 194.865 66.14 194.615 65.8066C194.365 65.4316 193.99 65.14 193.49 64.9316C192.365 64.64 191.198 64.39 189.99 64.1816C188.782 63.9316 187.594 63.7233 186.428 63.5566C185.261 63.39 184.136 63.265 183.053 63.1816C182.011 63.0983 181.053 63.0566 180.178 63.0566C177.678 63.0566 175.407 63.4316 173.365 64.1816C171.323 64.9316 169.573 65.9941 168.115 67.3691C166.698 68.7441 165.594 70.39 164.803 72.3066C164.011 74.1816 163.615 76.2441 163.615 78.4941C163.615 80.4941 163.907 82.3066 164.49 83.9316C165.115 85.515 165.948 86.8691 166.99 87.9941C168.073 89.1191 169.365 89.9941 170.865 90.6191C172.365 91.2441 174.011 91.5566 175.803 91.5566ZM246.59 100.682C244.09 100.682 241.59 100.077 239.09 98.8691C236.59 97.6191 234.194 95.9316 231.902 93.8066C229.611 91.6816 227.486 89.1816 225.527 86.3066C223.569 83.39 221.861 80.265 220.402 76.9316C218.944 73.5566 217.798 70.0358 216.965 66.3691C216.132 62.7025 215.715 59.0358 215.715 55.3691C215.715 52.5358 216.298 50.515 217.465 49.3066C218.632 48.0566 220.527 47.4316 223.152 47.4316C226.444 47.4316 228.277 48.7858 228.652 51.4941C229.402 57.2441 230.444 62.4316 231.777 67.0566C233.111 71.6816 234.673 75.6191 236.465 78.8691C238.298 82.1191 240.319 84.6191 242.527 86.3691C244.777 88.1191 247.152 88.9941 249.652 88.9941C251.444 88.9941 253.132 88.5566 254.715 87.6816C256.298 86.765 257.673 85.4941 258.84 83.8691C259.257 83.2441 259.527 82.64 259.652 82.0566C259.819 81.4733 259.944 80.8066 260.027 80.0566C260.236 77.0983 260.465 74.2025 260.715 71.3691C261.007 68.4941 261.277 65.6191 261.527 62.7441C261.611 61.4941 261.777 60.4733 262.027 59.6816C262.277 58.89 262.652 58.265 263.152 57.8066C263.652 57.3483 264.298 57.0358 265.09 56.8691C265.923 56.7025 266.965 56.6191 268.215 56.6191C269.632 56.6191 270.84 56.8275 271.84 57.2441C272.84 57.6191 273.652 58.265 274.277 59.1816C274.902 60.0566 275.34 61.2233 275.59 62.6816C275.882 64.0983 276.027 65.8691 276.027 67.9941C276.027 69.8275 275.882 71.4316 275.59 72.8066C275.34 74.14 275.027 75.4108 274.652 76.6191C274.319 77.7858 273.986 78.9525 273.652 80.1191C273.361 81.2441 273.173 82.4941 273.09 83.8691C272.882 87.3275 272.694 90.3275 272.527 92.8691C272.361 95.3691 272.215 97.515 272.09 99.3066C272.007 101.098 271.923 102.64 271.84 103.932C271.798 105.223 271.757 106.369 271.715 107.369C271.673 108.411 271.652 109.39 271.652 110.307C271.652 111.223 271.652 112.223 271.652 113.307C271.652 115.265 271.736 117.39 271.902 119.682C272.069 122.015 272.236 124.244 272.402 126.369C272.611 128.494 272.798 130.369 272.965 131.994C273.132 133.619 273.215 134.744 273.215 135.369C273.215 136.161 272.965 136.911 272.465 137.619C271.965 138.327 271.298 138.952 270.465 139.494C269.632 140.036 268.652 140.452 267.527 140.744C266.402 141.077 265.215 141.244 263.965 141.244C262.882 141.244 262.007 140.869 261.34 140.119C260.715 139.411 260.361 138.452 260.277 137.244C260.152 135.661 260.048 133.723 259.965 131.432C259.882 129.182 259.798 126.765 259.715 124.182C259.632 121.64 259.569 119.036 259.527 116.369C259.527 113.744 259.507 111.286 259.465 108.994C259.423 106.744 259.402 104.765 259.402 103.057C259.402 101.348 259.402 100.119 259.402 99.3691C259.402 98.6191 259.319 98.0983 259.152 97.8066C258.986 97.4733 258.673 97.3066 258.215 97.3066C257.965 97.3066 257.632 97.39 257.215 97.5566C256.798 97.6816 256.319 97.9108 255.777 98.2441C254.319 99.1191 252.84 99.7441 251.34 100.119C249.84 100.494 248.257 100.682 246.59 100.682Z" fill="#333333"/>
</svg>
