<svg width="1226" height="465" viewBox="0 0 1226 465" fill="none" xmlns="http://www.w3.org/2000/svg">
<ellipse cx="276.028" cy="233.311" rx="14.1813" ry="15.3068" fill="#333333"/>
<ellipse cx="276.028" cy="343.52" rx="14.1813" ry="15.3068" fill="#333333"/>
<path id="bowtie-left" d="M294.564 108.219C294.564 108.219 208.837 20.6986 193.845 64.2482C178.853 107.798 164.418 140.413 189.17 150.812C213.923 161.211 294.564 108.219 294.564 108.219Z" fill="#333333"/>
<path id="bowtie-right" d="M279.504 94.7095C309.86 80.6733 369.27 57.7977 370.562 92.2536C372.3 138.619 376.675 174.381 350.065 176.725C331.394 178.362 295.42 141.468 275.707 119.411C278.919 97.5329 276.339 116.274 279.504 94.7095Z" fill="#333333"/>
<path d="M423.548 381.404C423.548 336.82 423.548 291.887 423.548 246.607C423.548 200.977 423.548 155.871 423.548 111.287C436.779 111.287 450.171 111.287 463.724 111.287C477.278 111.287 490.51 111.287 503.417 111.287C503.417 113.725 503.417 115.989 503.417 118.079C503.417 120.169 503.417 122.433 503.417 124.871C512.13 118.253 521.811 113.202 532.46 109.719C543.43 105.887 555.21 103.972 567.796 103.972C586.19 103.972 602.326 108.5 616.201 117.556C630.401 126.612 641.372 139.674 649.117 156.742C657.183 173.461 661.218 193.663 661.218 217.348C661.218 244.517 661.218 271.86 661.218 299.376C661.218 326.893 661.218 354.236 661.218 381.404C648.311 381.404 635.079 381.404 621.526 381.404C607.972 381.404 594.581 381.404 581.349 381.404C581.349 356.326 581.349 330.899 581.349 305.124C581.349 279.348 581.349 253.921 581.349 228.843C581.349 214.91 578.282 203.764 572.152 195.404C566.344 186.697 556.984 182.343 544.077 182.343C531.17 182.343 521.164 186.348 514.066 194.36C506.968 202.371 503.417 213.865 503.417 228.843C503.417 253.921 503.417 279.348 503.417 305.124C503.417 330.899 503.417 356.326 503.417 381.404C490.51 381.404 477.278 381.404 463.724 381.404C450.171 381.404 436.779 381.404 423.548 381.404ZM865.38 381.404C865.38 378.618 865.38 376.005 865.38 373.567C865.38 370.781 865.38 368.168 865.38 365.73C857.313 373.045 848.116 378.618 837.788 382.449C827.786 386.629 816.974 388.719 805.357 388.719C788.899 388.719 773.409 385.237 758.888 378.27C744.366 371.303 731.459 361.551 720.163 349.011C709.193 336.124 700.48 320.972 694.024 303.556C687.894 286.14 684.827 266.983 684.827 246.084C684.827 224.837 687.894 205.506 694.024 188.09C700.48 170.674 709.193 155.697 720.163 143.157C731.459 130.618 744.366 121.039 758.888 114.421C773.409 107.455 788.736 103.972 804.873 103.972C816.49 103.972 827.461 106.062 837.788 110.242C848.116 114.073 857.313 119.472 865.38 126.438C865.38 105.539 865.38 84.4661 865.38 63.2191C865.38 41.972 865.38 20.8989 865.38 0C878.612 0 892.003 0 905.556 0C919.11 0 932.342 0 945.248 0C945.248 63.0448 945.248 126.612 945.248 190.702C945.248 254.792 945.248 318.36 945.248 381.404C932.342 381.404 919.11 381.404 905.556 381.404C892.003 381.404 878.612 381.404 865.38 381.404ZM816.006 312.438C831.496 312.438 843.919 306.343 853.278 294.152C862.638 281.961 867.316 265.938 867.316 246.084C867.316 226.23 862.638 210.382 853.278 198.539C843.919 186.348 831.496 180.253 816.006 180.253C800.195 180.253 787.609 186.174 778.25 198.017C769.215 209.859 764.696 225.882 764.696 246.084C764.696 266.286 769.215 282.483 778.25 294.674C787.609 306.517 800.195 312.438 816.006 312.438ZM1012.05 465C1018.5 446.538 1025.12 427.904 1031.89 409.095C1038.99 390.633 1045.77 372.348 1052.22 354.236C1037.06 314.18 1021.57 273.775 1005.76 233.022C990.266 191.921 974.938 151.343 959.77 111.287C973.97 111.287 988.167 111.287 1002.37 111.287C1016.57 111.287 1030.6 111.287 1044.48 111.287C1052.87 133.579 1061.26 156.219 1069.65 179.208C1078.36 202.197 1086.91 225.011 1095.31 247.652C1103.05 225.011 1110.96 202.197 1119.02 179.208C1127.09 156.219 1135 133.579 1142.74 111.287C1156.62 111.287 1170.5 111.287 1184.37 111.287C1198.25 111.287 1212.13 111.287 1226 111.287C1204.38 169.455 1182.6 228.495 1160.65 288.404C1139.03 347.966 1117.41 406.83 1095.79 465C1081.91 465 1067.88 465 1053.68 465C1039.8 465 1025.92 465 1012.05 465Z" fill="#333333"/>
<path d="M0 387.935C0 329.418 0 270.205 0 210.295C0 150.385 0 91.1711 0 32.6543C14.1989 32.6543 28.3978 32.6543 42.5968 32.6543C56.7958 32.6543 70.8334 32.6543 84.7095 32.6543C84.7095 77.5869 84.7095 123.042 84.7095 169.019C84.7095 214.649 84.7095 259.93 84.7095 304.862C101.813 304.862 119.077 304.862 136.503 304.862C153.929 304.862 171.033 304.862 187.813 304.862C187.813 318.446 187.813 332.379 187.813 346.66C187.813 360.592 187.813 374.351 187.813 387.935C156.834 387.935 125.532 387.935 93.9065 387.935C62.2815 387.935 30.9795 387.935 0 387.935Z" fill="#333333"/>
</svg>
