<svg width="86" height="80" viewBox="0 0 86 80" fill="none" xmlns="http://www.w3.org/2000/svg">
<path opacity="0.8" d="M7.46954 80.0034C6.54195 80.0034 5.712 79.8081 4.97969 79.4175C4.27179 79.0514 3.72256 78.5266 3.332 77.8431C2.94144 77.1596 2.74615 76.3663 2.74615 75.4631C2.74615 74.3158 3.01467 73.1563 3.55169 71.9846C4.11313 70.8129 4.97969 69.6046 6.15138 68.3597C7.32308 67.1148 8.83651 65.8088 10.6917 64.4418C12.5469 63.0749 14.7804 61.6225 17.3923 60.0846L25.6674 34.6369C26.3265 32.7573 26.6316 31.1951 26.5828 29.9502C26.5339 28.7052 26.1556 27.7776 25.4477 27.1674C24.7642 26.5571 23.7634 26.252 22.4452 26.252C21.2247 26.252 20.0652 26.5083 18.9668 27.0209C17.8683 27.5091 16.8431 28.2048 15.8911 29.108C14.9635 30.0112 14.1457 31.0852 13.4378 32.3302C12.7544 33.5751 12.2295 34.9543 11.8634 36.4677C11.4972 37.9811 11.3142 39.58 11.3142 41.2643C11.3142 42.3872 11.3752 43.5345 11.4972 44.7062C11.6437 45.8534 11.8634 46.9885 12.1563 48.1114C12.4492 49.2098 12.8032 50.2595 13.2182 51.2603C13.6575 52.2367 14.1702 53.1277 14.756 53.9332C14.9757 54.2506 15.0245 54.5557 14.9025 54.8486C14.7804 55.1171 14.5973 55.3368 14.3532 55.5077C13.9383 55.8006 13.6087 55.9349 13.3646 55.9105C13.1449 55.8616 12.9252 55.6786 12.7055 55.3612C12.0465 54.336 11.4606 53.2619 10.948 52.1391C10.4354 51.0162 9.996 49.8445 9.62985 48.624C9.2881 47.4035 9.03179 46.183 8.86092 44.9625C8.71446 43.7419 8.64123 42.5336 8.64123 41.3375C8.64123 39.3847 8.87313 37.5417 9.33692 35.8086C9.80072 34.0755 10.4598 32.4766 11.3142 31.012C12.1685 29.5474 13.1815 28.2781 14.3532 27.204C15.5249 26.1299 16.8065 25.3 18.1978 24.7142C19.5892 24.1283 21.0661 23.8354 22.6283 23.8354C24.5323 23.8354 26.0213 24.2748 27.0954 25.1535C28.1938 26.0323 28.8285 27.3138 28.9994 28.9982C29.1947 30.6825 28.8773 32.7695 28.0474 35.2594L20.5412 58.3637C21.5909 57.7534 22.7015 57.131 23.8732 56.4963C25.0449 55.8616 26.2532 55.2148 27.4982 54.5557C27.7911 54.4092 28.0474 54.3848 28.2671 54.4825C28.5112 54.5557 28.7309 54.7754 28.9262 55.1415C29.097 55.4833 29.1458 55.7762 29.0726 56.0203C29.0238 56.24 28.8651 56.4231 28.5966 56.5695C26.8635 57.4483 25.2402 58.3027 23.7268 59.1326C22.2133 59.9626 20.7975 60.7559 19.4794 61.5126L16.4769 70.7763C15.8178 72.8024 15.0367 74.4989 14.1335 75.8658C13.2304 77.2328 12.2295 78.2581 11.1311 78.9415C10.0326 79.6494 8.8121 80.0034 7.46954 80.0034ZM7.68923 77.66C8.568 77.66 9.38574 77.3671 10.1425 76.7812C10.9236 76.2198 11.6437 75.3776 12.3028 74.2548C12.9863 73.1319 13.5965 71.7405 14.1335 70.0806L16.3305 63.3434C13.7674 64.9545 11.6681 66.4557 10.0326 67.8471C8.42154 69.2385 7.23764 70.5444 6.48092 71.7649C5.74862 73.0098 5.38246 74.1937 5.38246 75.3166C5.38246 76.0733 5.58995 76.647 6.00492 77.0375C6.44431 77.4525 7.00574 77.66 7.68923 77.66Z" fill="black"/>
<path opacity="0.8" d="M42.4407 63.5625C42.0032 62.8125 41.5969 61.7812 41.2219 60.4688C40.8782 59.125 40.5657 57.75 40.2844 56.3438C40.0032 54.9375 39.7688 53.625 39.5813 52.4062C39.3938 51.2188 39.2688 50.3438 39.2063 49.7812C39.1125 50.3438 38.925 51.1719 38.6438 52.2656C38.3625 53.3594 37.9875 54.5469 37.5188 55.8281C37.05 57.0781 36.5032 58.3438 35.8782 59.625C35.2532 60.875 34.55 61.9531 33.7688 62.8594C33.0188 63.7656 32.2063 64.3906 31.3313 64.7344C30.4563 65.0781 29.55 64.9531 28.6125 64.3594C28.55 64.3281 28.4719 64.2188 28.3782 64.0312C28.2844 63.8125 28.1907 63.5781 28.0969 63.3281C28.0344 63.0469 27.9719 62.7812 27.9094 62.5312C27.8469 62.2812 27.8157 62.0781 27.8157 61.9219V42.375C27.3469 41.5 27.0813 40.7812 27.0188 40.2188C26.9563 39.625 27.0188 39.1719 27.2063 38.8594C27.3938 38.5469 27.6438 38.3594 27.9563 38.2969C28.3 38.2031 28.6438 38.2188 28.9875 38.3438C29.3313 38.4375 29.6282 38.625 29.8782 38.9062C30.1282 39.1875 30.2532 39.5469 30.2532 39.9844V59.4844L31.0969 61.9219C32.6282 60.8594 33.8625 59.5625 34.8 58.0312C35.7375 56.5 36.4563 54.8594 36.9563 53.1094C37.4563 51.3594 37.8 49.5625 37.9875 47.7188C38.175 45.875 38.3 44.0938 38.3625 42.375C38.5188 42.3438 38.7219 42.3125 38.9719 42.2812C39.2532 42.25 39.5188 42.2656 39.7688 42.3281C40.0188 42.3594 40.2375 42.4531 40.425 42.6094C40.6438 42.7344 40.7844 42.9375 40.8469 43.2188L44.0813 60.2812L45.7219 63.5625C46.4407 63.0625 46.9875 62.1875 47.3625 60.9375C47.7375 59.6875 48.0032 58.2031 48.1594 56.4844C48.3157 54.7656 48.3938 52.9062 48.3938 50.9062C48.425 48.9062 48.425 46.9062 48.3938 44.9062C48.3938 42.9062 48.4094 41 48.4407 39.1875C48.5032 37.375 48.6594 35.8125 48.9094 34.5C49.1594 33.1875 49.5344 32.2031 50.0344 31.5469C50.5657 30.8906 51.2844 30.7188 52.1907 31.0312C52.8157 31.2188 53.1125 31.5781 53.0813 32.1094C53.05 32.6094 52.8782 33.1406 52.5657 33.7031C52.2844 34.2344 51.9563 34.7344 51.5813 35.2031C51.2375 35.6406 51.05 35.875 51.0188 35.9062V57.8906C51.0188 58.5156 50.8782 59.2344 50.5969 60.0469C50.3469 60.8594 50.0032 61.6562 49.5657 62.4375C49.1282 63.1875 48.6282 63.875 48.0657 64.5C47.5032 65.125 46.8938 65.5469 46.2375 65.7656C45.6125 65.9531 44.9719 65.9062 44.3157 65.625C43.6594 65.3125 43.0344 64.625 42.4407 63.5625Z" fill="black"/>
</svg>
