<svg width="614" height="486" viewBox="0 0 614 486" fill="none" xmlns="http://www.w3.org/2000/svg">
<g filter="url(#filter0_d_1529_7227)">
<rect x="4.5" y="2.5" width="605" height="477" rx="7.5" stroke="#F0F2F5" shape-rendering="crispEdges"/>
<g filter="url(#filter1_d_1529_7227)">
<rect x="198" y="374.467" width="218" height="76.5333" rx="12" fill="white"/>
<rect x="198.5" y="374.967" width="217" height="75.5333" rx="11.5" stroke="#E6E7EA"/>
</g>
<g filter="url(#filter2_d_1529_7227)">
<rect x="57" y="247.533" width="218" height="76.5333" rx="12" fill="white"/>
<rect x="57.5" y="248.033" width="217" height="75.5333" rx="11.5" stroke="#E6E7EA"/>
</g>
<path d="M154.554 245.903V245.903C154.555 242.852 157.032 240.377 160.083 240.38L165.771 240.386M176.986 245.902V245.902C176.987 242.86 174.524 240.395 171.482 240.392L165.771 240.386M165.771 240.386L165.763 224.784M165.771 240.386L165.772 245.904" stroke="#E6E7EA" stroke-width="1.5"/>
<circle cx="155" cy="247.797" r="1.5" fill="white" stroke="#E6E7EA"/>
<circle cx="166" cy="247.797" r="1.5" fill="white" stroke="#E6E7EA"/>
<circle cx="177" cy="247.797" r="1.5" fill="white" stroke="#E6E7EA"/>
<path d="M417.746 403.448V403.448C421.016 403.449 423.667 406.103 423.663 409.373L423.658 413.918M417.749 424.384V424.384C421.008 424.385 423.65 421.747 423.654 418.488L423.658 413.918M423.658 413.918L440.374 413.913L442.606 413.913C445.917 413.913 448.599 411.231 448.599 407.92L448.599 225.699M423.658 413.918L417.746 413.917" stroke="#E6E7EA" stroke-width="1.5"/>
<circle cx="415.861" cy="403.133" r="1.5" transform="rotate(90 415.861 403.133)" fill="white" stroke="#E6E7EA"/>
<circle cx="415.861" cy="414.133" r="1.5" transform="rotate(90 415.861 414.133)" fill="white" stroke="#E6E7EA"/>
<circle cx="415.861" cy="425.133" r="1.5" transform="rotate(90 415.861 425.133)" fill="white" stroke="#E6E7EA"/>
<g filter="url(#filter3_d_1529_7227)">
<rect x="57" y="147.047" width="218" height="76.5333" rx="12" fill="white"/>
<rect x="57.5" y="147.547" width="217" height="75.5333" rx="11.5" stroke="#E6E7EA"/>
</g>
<g filter="url(#filter4_d_1529_7227)">
<rect x="339" y="146.732" width="218" height="76.5333" rx="12" fill="white"/>
<rect x="339.5" y="147.232" width="217" height="75.5333" rx="11.5" stroke="#E6E7EA"/>
</g>
<path d="M155.015 145.398V145.398C155.014 142.322 157.51 139.826 160.587 139.826L166.001 139.826M176.997 145.402V145.402C176.997 142.331 174.513 139.843 171.443 139.837L166.001 139.826M166.001 139.826V139.826C165.88 134.314 170.32 129.776 175.833 129.776L212.562 129.778L294.972 129.784C301.607 129.784 306.99 124.4 306.989 117.765L306.987 106.864M166.001 139.826L166.002 145.417" stroke="#E6E7EA" stroke-width="1.5"/>
<circle cx="155.008" cy="147.297" r="1.625" fill="white" stroke="#E6E7EA" stroke-width="0.75"/>
<circle cx="166.008" cy="147.297" r="1.625" fill="white" stroke="#E6E7EA" stroke-width="0.75"/>
<circle cx="177.008" cy="147.297" r="1.625" fill="white" stroke="#E6E7EA" stroke-width="0.75"/>
<path d="M459.077 145.398V145.398C459.078 142.322 456.581 139.826 453.505 139.826L448.091 139.826M437.095 145.402V145.402C437.095 142.331 439.578 139.843 442.649 139.837L448.091 139.826M448.091 139.826V139.826C448.212 134.314 443.772 129.776 438.258 129.776L401.529 129.778L319.12 129.784C312.485 129.784 307.101 124.4 307.102 117.765L307.104 106.864M448.091 139.826L448.09 145.417" stroke="#E6E7EA" stroke-width="1.5"/>
<circle cx="2" cy="2" r="1.625" transform="matrix(-1 0 0 1 461.084 145.297)" fill="white" stroke="#E6E7EA" stroke-width="0.75"/>
<circle cx="2" cy="2" r="1.625" transform="matrix(-1 0 0 1 450.084 145.297)" fill="white" stroke="#E6E7EA" stroke-width="0.75"/>
<circle cx="2" cy="2" r="1.625" transform="matrix(-1 0 0 1 439.084 145.297)" fill="white" stroke="#E6E7EA" stroke-width="0.75"/>
<g filter="url(#filter5_d_1529_7227)">
<rect x="198" y="31" width="218" height="73.7333" rx="12" fill="white"/>
<rect x="198.5" y="31.5" width="217" height="72.7333" rx="11.5" stroke="#E6E7EA"/>
</g>
<path d="M166.5 326.867L166.5 402.764C166.5 409.391 171.873 414.764 178.5 414.764L198.883 414.764" stroke="#E6E7EA" stroke-width="1.5"/>
<path d="M198.5 413.385C199.361 413.385 200 414.028 200 414.751C200 415.474 199.361 416.118 198.5 416.118C197.639 416.118 197 415.474 197 414.751C197 414.028 197.639 413.385 198.5 413.385Z" fill="white" stroke="#E6E7EA"/>
</g>
<defs>
<filter id="filter0_d_1529_7227" x="0" y="0" width="614" height="486" filterUnits="userSpaceOnUse" color-interpolation-filters="sRGB">
<feFlood flood-opacity="0" result="BackgroundImageFix"/>
<feColorMatrix in="SourceAlpha" type="matrix" values="0 0 0 0 0 0 0 0 0 0 0 0 0 0 0 0 0 0 127 0" result="hardAlpha"/>
<feOffset dy="2"/>
<feGaussianBlur stdDeviation="2"/>
<feComposite in2="hardAlpha" operator="out"/>
<feColorMatrix type="matrix" values="0 0 0 0 0 0 0 0 0 0 0 0 0 0 0 0 0 0 0.08 0"/>
<feBlend mode="normal" in2="BackgroundImageFix" result="effect1_dropShadow_1529_7227"/>
<feBlend mode="normal" in="SourceGraphic" in2="effect1_dropShadow_1529_7227" result="shape"/>
</filter>
<filter id="filter1_d_1529_7227" x="191" y="368.467" width="232" height="90.5332" filterUnits="userSpaceOnUse" color-interpolation-filters="sRGB">
<feFlood flood-opacity="0" result="BackgroundImageFix"/>
<feColorMatrix in="SourceAlpha" type="matrix" values="0 0 0 0 0 0 0 0 0 0 0 0 0 0 0 0 0 0 127 0" result="hardAlpha"/>
<feOffset dy="1"/>
<feGaussianBlur stdDeviation="3.5"/>
<feComposite in2="hardAlpha" operator="out"/>
<feColorMatrix type="matrix" values="0 0 0 0 0 0 0 0 0 0 0 0 0 0 0 0 0 0 0.12 0"/>
<feBlend mode="normal" in2="BackgroundImageFix" result="effect1_dropShadow_1529_7227"/>
<feBlend mode="normal" in="SourceGraphic" in2="effect1_dropShadow_1529_7227" result="shape"/>
</filter>
<filter id="filter2_d_1529_7227" x="50" y="241.533" width="232" height="90.5332" filterUnits="userSpaceOnUse" color-interpolation-filters="sRGB">
<feFlood flood-opacity="0" result="BackgroundImageFix"/>
<feColorMatrix in="SourceAlpha" type="matrix" values="0 0 0 0 0 0 0 0 0 0 0 0 0 0 0 0 0 0 127 0" result="hardAlpha"/>
<feOffset dy="1"/>
<feGaussianBlur stdDeviation="3.5"/>
<feComposite in2="hardAlpha" operator="out"/>
<feColorMatrix type="matrix" values="0 0 0 0 0 0 0 0 0 0 0 0 0 0 0 0 0 0 0.12 0"/>
<feBlend mode="normal" in2="BackgroundImageFix" result="effect1_dropShadow_1529_7227"/>
<feBlend mode="normal" in="SourceGraphic" in2="effect1_dropShadow_1529_7227" result="shape"/>
</filter>
<filter id="filter3_d_1529_7227" x="50" y="141.047" width="232" height="90.5332" filterUnits="userSpaceOnUse" color-interpolation-filters="sRGB">
<feFlood flood-opacity="0" result="BackgroundImageFix"/>
<feColorMatrix in="SourceAlpha" type="matrix" values="0 0 0 0 0 0 0 0 0 0 0 0 0 0 0 0 0 0 127 0" result="hardAlpha"/>
<feOffset dy="1"/>
<feGaussianBlur stdDeviation="3.5"/>
<feComposite in2="hardAlpha" operator="out"/>
<feColorMatrix type="matrix" values="0 0 0 0 0 0 0 0 0 0 0 0 0 0 0 0 0 0 0.12 0"/>
<feBlend mode="normal" in2="BackgroundImageFix" result="effect1_dropShadow_1529_7227"/>
<feBlend mode="normal" in="SourceGraphic" in2="effect1_dropShadow_1529_7227" result="shape"/>
</filter>
<filter id="filter4_d_1529_7227" x="332" y="140.732" width="232" height="90.5332" filterUnits="userSpaceOnUse" color-interpolation-filters="sRGB">
<feFlood flood-opacity="0" result="BackgroundImageFix"/>
<feColorMatrix in="SourceAlpha" type="matrix" values="0 0 0 0 0 0 0 0 0 0 0 0 0 0 0 0 0 0 127 0" result="hardAlpha"/>
<feOffset dy="1"/>
<feGaussianBlur stdDeviation="3.5"/>
<feComposite in2="hardAlpha" operator="out"/>
<feColorMatrix type="matrix" values="0 0 0 0 0 0 0 0 0 0 0 0 0 0 0 0 0 0 0.12 0"/>
<feBlend mode="normal" in2="BackgroundImageFix" result="effect1_dropShadow_1529_7227"/>
<feBlend mode="normal" in="SourceGraphic" in2="effect1_dropShadow_1529_7227" result="shape"/>
</filter>
<filter id="filter5_d_1529_7227" x="191" y="25" width="232" height="87.7324" filterUnits="userSpaceOnUse" color-interpolation-filters="sRGB">
<feFlood flood-opacity="0" result="BackgroundImageFix"/>
<feColorMatrix in="SourceAlpha" type="matrix" values="0 0 0 0 0 0 0 0 0 0 0 0 0 0 0 0 0 0 127 0" result="hardAlpha"/>
<feOffset dy="1"/>
<feGaussianBlur stdDeviation="3.5"/>
<feComposite in2="hardAlpha" operator="out"/>
<feColorMatrix type="matrix" values="0 0 0 0 0 0 0 0 0 0 0 0 0 0 0 0 0 0 0.12 0"/>
<feBlend mode="normal" in2="BackgroundImageFix" result="effect1_dropShadow_1529_7227"/>
<feBlend mode="normal" in="SourceGraphic" in2="effect1_dropShadow_1529_7227" result="shape"/>
</filter>
</defs>
</svg>
